<svg width="101" height="40" viewBox="0 0 101 40" fill="none" xmlns="http://www.w3.org/2000/svg">
<path d="M49.8026 23.9715H64.2122V12.8821C63.681 13.4797 62.8177 13.8781 61.9545 13.8781C60.9584 13.8781 60.0952 13.4133 59.4975 12.7493C58.9663 13.4797 58.0367 13.8781 57.0406 13.8781C56.0446 13.8781 55.1813 13.4133 54.5837 12.7493C54.0524 13.4797 53.1228 13.8781 52.1267 13.8781C51.1307 13.8781 50.2674 13.4133 49.7362 12.7493V23.9715H49.8026Z" fill="#32AEE4"/>
<path d="M48.2758 35.2601V35.5922H48.7406C48.6078 35.5257 48.4086 35.3929 48.2758 35.2601Z" fill="#187FA3"/>
<path d="M49.8033 23.8387V27.4245C49.8033 28.819 50.0026 30.0143 50.3346 31.0103C50.6666 32.0064 51.1978 32.8032 51.7955 33.4673C52.3931 34.1313 53.1899 34.5961 54.0532 34.8618C54.9164 35.1938 55.9125 35.3266 57.0413 35.3266C58.1038 35.3266 59.0999 35.1938 60.0295 34.8618C60.8928 34.5297 61.6896 34.0649 62.2872 33.4673C62.8849 32.8032 63.4161 32.0064 63.7481 31.0103C64.0801 30.0143 64.2793 28.819 64.2793 27.4245V23.8387H49.8033Z" fill="#187FA3"/>
<path d="M65.2751 35.6586H65.5407V35.4594C65.4743 35.5258 65.4079 35.5922 65.2751 35.6586Z" fill="#187FA3"/>
<path d="M18.6594 27.093C17.7961 26.4289 16.5344 26.0969 14.8743 26.0969H7.43713V34.1982H14.8743C16.5344 34.1982 17.7961 33.8662 18.6594 33.2021C19.5226 32.5381 19.9874 31.542 19.9874 30.214C19.9874 28.8195 19.5226 27.757 18.6594 27.093Z" fill="#1CA94A"/>
<path d="M18.6594 19.6557C18.6594 18.4604 18.2609 17.5972 17.4641 16.9331C16.6672 16.3355 15.472 16.0035 13.8783 16.0035H7.43713V23.6399H13.8783C17.0657 23.5735 18.6594 22.3118 18.6594 19.6557Z" fill="#1CA94A"/>
<path d="M70.4543 11.5541C69.6575 11.5541 68.9934 12.2181 68.9934 13.015V27.2253C68.9934 30.6119 67.931 33.1353 65.8725 34.7954C63.8139 36.4555 60.8922 37.3187 57.0408 37.3187C53.2558 37.3187 50.2676 36.4555 48.2091 34.7954C46.1506 33.2017 45.1545 30.6119 45.1545 27.2253V13.015C45.1545 12.2181 44.4905 11.5541 43.6936 11.5541H1.46088C0.664037 11.5541 0 12.2181 0 13.015V37.8499C0 38.6468 0.664037 39.3108 1.46088 39.3108H99.5391C100.336 39.3108 101 38.6468 101 37.8499V13.015C101 12.2181 100.336 11.5541 99.5391 11.5541H70.4543ZM22.6437 34.9282C20.9836 36.057 18.3938 36.6547 14.8744 36.6547H2.65615V13.4798H13.8784C15.6049 13.4798 17.0657 13.6126 18.3274 13.9446C19.5891 14.2102 20.5851 14.6751 21.4484 15.2063C22.2452 15.7375 22.8429 16.4015 23.2413 17.132C23.6397 17.8624 23.8389 18.7257 23.8389 19.5889C23.8389 20.7842 23.5069 21.7802 22.8429 22.6435C22.1788 23.5067 21.1828 24.1708 19.8547 24.5692C21.5148 24.9012 22.7765 25.5653 23.7725 26.4949C24.7022 27.4246 25.167 28.6862 25.167 30.2135C25.1006 32.2056 24.3037 33.7993 22.6437 34.9282ZM37.1861 36.6547H32.405V13.4798H37.1861V36.6547ZM97.8126 33.2017C97.4142 33.9985 96.7502 34.729 95.8869 35.3266C95.0237 35.9242 93.8284 36.3891 92.4339 36.7875C91.0394 37.1195 89.2466 37.3187 87.188 37.3187C85.9928 37.3187 84.8639 37.2523 83.735 37.0531C82.6062 36.8539 81.5437 36.6547 80.5477 36.3227C79.5516 35.9906 78.622 35.5922 77.7587 35.1274C76.8955 34.6626 76.165 34.1313 75.5674 33.5337L77.2275 31.5416C78.4892 32.604 79.95 33.4673 81.6101 33.9985C83.2702 34.5298 85.1295 34.8618 87.1216 34.8618C89.3794 34.8618 90.9066 34.5298 91.8363 33.9321C92.7659 33.3345 93.2308 32.4712 93.2308 31.4088C93.2308 30.5455 92.8988 29.8815 92.1683 29.2839C91.4379 28.6862 90.1762 28.155 88.4497 27.6238L82.1413 25.6317C80.0828 24.9676 78.4892 24.1044 77.4267 23.1083C76.3642 22.1123 75.833 20.7842 75.833 19.1905C75.833 18.3937 76.0322 17.5968 76.4306 16.8C76.8291 16.0695 77.4267 15.3391 78.2235 14.8079C79.0204 14.2102 80.0828 13.7454 81.3445 13.4134C82.6062 13.0814 84.1335 12.8822 85.9264 12.8822C86.9888 12.8822 88.0513 12.9486 89.1801 13.1478C90.2426 13.347 91.3051 13.5462 92.2347 13.8782C93.2308 14.2102 94.1604 14.6086 94.9573 15.0735C95.8205 15.5383 96.551 16.0695 97.1486 16.6672L95.4885 18.6593C94.2268 17.5968 92.8323 16.7336 91.2387 16.2023C89.645 15.6711 87.9185 15.3391 85.86 15.3391C84.1999 15.3391 82.9382 15.6047 82.1413 16.2023C81.3445 16.8 80.8797 17.464 80.8797 18.3273C80.8797 18.7921 80.9461 19.1905 81.0789 19.5225C81.2117 19.8545 81.4773 20.1866 81.8757 20.4522C82.2078 20.7178 82.739 21.0498 83.3366 21.249C83.9342 21.5146 84.6647 21.7802 85.5279 22.0459L91.7699 24.038C93.762 24.702 95.3557 25.4989 96.4846 26.5613C97.6134 27.6238 98.211 28.8854 98.211 30.4791C98.4102 31.4752 98.211 32.4048 97.8126 33.2017Z" fill="#1CA94A"/>
<path d="M64.1461 4.58187C58.701 4.05064 56.6425 9.69496 56.6425 9.69496C61.822 1.79292 68.1968 10.0934 74.1067 9.62855C79.751 9.23013 82.0087 3.65222 82.0087 3.65222C75.0363 12.9487 69.5912 5.1131 64.1461 4.58187Z" fill="#79C5EE"/>
<path d="M64.1461 0.929651C58.701 0.398422 56.6425 6.04274 56.6425 6.04274C61.822 -1.8593 68.1968 6.44116 74.1067 5.97633C79.751 5.57791 82.0087 0 82.0087 0C75.0363 9.23011 69.5912 1.46088 64.1461 0.929651Z" fill="#79C5EE"/>
</svg>
