<svg width="113" height="56" viewBox="0 0 113 56" fill="none" xmlns="http://www.w3.org/2000/svg">
<path fill-rule="evenodd" clip-rule="evenodd" d="M25.0256 5.0332C34.3386 -1.38253 43.6517 -1.72153 52.9647 4.34266C52.8581 4.60004 52.4612 5.66096 51.7799 6.05645C42.8697 1.17246 35.0495 2.91136 28.7342 7.36219C28.3965 17.4064 32.2473 25.2534 39.4869 30.1374C39.8245 24.2804 42.526 17.7328 50.7076 12.8049C42.7038 15.9625 39.8482 21.5622 39.1669 25.8058C36.0804 18.2601 40.5592 13.9349 46.5724 11.2983C50.3817 9.87324 52.9055 9.03204 53.9837 5.03947C54.3155 17.6826 49.5819 27.0614 39.5046 33C29.5162 27.0049 24.599 17.7391 25.0256 5.0332Z" fill="#81C14B"/>
<path d="M6.76948 56C8.91025 56 10.6267 55.3867 11.9189 54.1768V49.1547H11.0317V53.895C10.0096 54.8066 8.58239 55.2707 6.76948 55.2707C5.13015 55.2707 3.74153 54.7735 2.60365 53.779C1.46576 52.7845 0.906454 51.5249 0.906454 50.0166C0.906454 48.4917 1.46576 47.232 2.60365 46.2376C3.74153 45.2265 5.14943 44.7293 6.82734 44.7293C8.44738 44.7293 9.89385 45.1602 11.1667 46.0221V45.2099C9.971 44.3978 8.50524 44 6.76948 44C4.86014 44 3.24009 44.5635 1.94791 45.7072C0.655733 46.8508 0 48.2762 0 50C0 51.7403 0.655733 53.1657 1.94791 54.3094C3.24009 55.4365 4.86014 56 6.76948 56Z" fill="#353535"/>
<path d="M19.4449 55.8011V50.3481H24.2665L28.683 55.8011H29.7245L25.2887 50.2983C27.4294 50.0829 28.6445 48.9061 28.6445 47.2486C28.6445 45.4088 27.1016 44.1989 24.5365 44.1989H18.5578V55.8011H19.4449ZM19.4449 44.9116H24.4593C26.5423 44.9116 27.7573 45.7901 27.7573 47.2652C27.7573 48.7901 26.5423 49.6354 24.4593 49.6354H19.4449V44.9116Z" fill="#353535"/>
<path d="M44.9863 55.8011V55.0884H36.5389V49.9171H43.2698V49.2044H36.5389V44.9116H44.6777V44.1989H35.6517V55.8011H44.9863Z" fill="#353535"/>
<path d="M60.1591 55.8011V55.0884H51.7117V49.9171H58.4426V49.2044H51.7117V44.9116H59.8505V44.1989H50.8246V55.8011H60.1591Z" fill="#353535"/>
<path d="M66.8846 55.8011V45.5083L76.1034 55.8011H76.8749V44.1989H75.9877V54.4751L66.7882 44.1989H65.9974V55.8011H66.8846Z" fill="#353535"/>
<path d="M85.8505 53.7624C84.7319 52.7514 84.1726 51.5083 84.1726 50C84.1726 48.4917 84.7319 47.2486 85.8505 46.2376C86.9691 45.2265 88.3385 44.7293 89.9778 44.7293C91.6171 44.7293 92.9864 45.2265 94.105 46.2376C95.2236 47.2486 95.783 48.4917 95.783 50C95.783 51.5083 95.2236 52.7514 94.105 53.7624C92.9864 54.7735 91.6171 55.2707 89.9778 55.2707C88.3385 55.2707 86.9691 54.7735 85.8505 53.7624ZM89.9778 56C91.8871 56 93.4686 55.4365 94.7608 54.2928C96.053 53.1492 96.6894 51.7072 96.6894 50C96.6894 48.2928 96.053 46.8674 94.7608 45.7238C93.4686 44.5801 91.8871 44 89.9778 44C88.0684 44 86.4677 44.5801 85.1755 45.7238C83.9026 46.8674 83.2662 48.2928 83.2662 50C83.2662 51.7238 83.9026 53.1492 85.1755 54.2928C86.4677 55.4365 88.0684 56 89.9778 56Z" fill="#353535"/>
<path d="M101.988 55.8011L106.944 50.116L111.901 55.8011H113L107.484 49.4862L112.094 44.1989H111.033L106.963 48.8729L102.894 44.1989H101.814L106.404 49.5028L100.946 55.8011H101.988Z" fill="#353535"/>
</svg>
