<svg width="155" height="33" viewBox="0 0 155 33" fill="none" xmlns="http://www.w3.org/2000/svg">
<path d="M0 22.8117L9.27486 0.0639648L18.5497 22.8117H15.1542L14.4625 21.0184H4.08723L3.3641 22.8117H0ZM5.21907 18.0923H13.3306L9.27486 7.67803L5.21907 18.0923Z" fill="white"/>
<path d="M34.7729 0.0942383C36.3449 0.0942383 37.8226 0.408867 39.2059 1.00666C40.5893 1.60446 41.784 2.42251 42.8216 3.42932C43.8591 4.4676 44.6451 5.6632 45.2425 7.04757C45.8398 8.43195 46.1542 9.91071 46.1542 11.4839C46.1542 13.0885 45.8398 14.5987 45.211 15.9831C44.5822 17.3675 43.7333 18.5945 42.6644 19.6328H46.1228V22.842H34.7414C33.1694 22.842 31.6917 22.5274 30.3084 21.9296C28.925 21.3318 27.7303 20.5138 26.7242 19.5069C25.6866 18.4687 24.9006 17.2731 24.3033 15.9202C23.7059 14.5358 23.3915 13.057 23.3915 11.4839C23.3915 9.91071 23.7059 8.43195 24.3033 7.04757C24.9006 5.6632 25.7181 4.4676 26.7242 3.42932C27.7617 2.39104 28.9564 1.60446 30.3084 1.00666C31.7546 0.408867 33.2009 0.0942383 34.7729 0.0942383ZM34.8672 19.6643C35.9676 19.6643 37.0366 19.444 38.0112 19.0035C38.9859 18.563 39.8662 17.9652 40.5893 17.2416C41.3124 16.4865 41.9098 15.637 42.3185 14.6616C42.7272 13.6863 42.9473 12.6165 42.9473 11.5153C42.9473 10.3827 42.7272 9.31291 42.3185 8.3061C41.9098 7.29928 41.3124 6.44977 40.5579 5.69466C39.8033 4.93955 38.9544 4.37321 37.9483 3.93273C36.9422 3.52371 35.9047 3.30347 34.7414 3.30347C33.6096 3.30347 32.5721 3.52371 31.566 3.93273C30.5599 4.34175 29.711 4.93955 28.9564 5.69466C28.2019 6.44977 27.6359 7.29928 27.1958 8.3061C26.7871 9.31291 26.567 10.3512 26.567 11.5153C26.567 12.6165 26.7871 13.6863 27.1958 14.6931C27.6045 15.6999 28.2019 16.5494 28.9564 17.3045C29.711 18.0596 30.5599 18.626 31.566 19.0665C32.5721 19.4755 33.6096 19.6957 34.7414 19.6957H34.8672V19.6643Z" fill="white"/>
<path d="M63.1319 0.0942383H66.4017V15.2909C66.4017 16.3606 66.2131 17.336 65.8044 18.2484C65.3956 19.1608 64.8612 19.9474 64.138 20.6081C63.4463 21.2689 62.6289 21.8037 61.6857 22.2128C60.7425 22.6218 59.7678 22.8106 58.6674 22.8106C57.5985 22.8106 56.6238 22.6218 55.7121 22.2128C54.8003 21.8352 53.9828 21.3003 53.2912 20.6081C52.5995 19.9474 52.065 19.1294 51.6563 18.2484C51.2475 17.336 51.0589 16.3606 51.0589 15.2909V0.0942383H54.3287V15.2909C54.3287 15.8887 54.4544 16.455 54.6745 16.9899C54.8946 17.5248 55.209 17.9967 55.6177 18.3743C55.995 18.7833 56.4666 19.0979 57.0011 19.3182C57.5356 19.5384 58.1015 19.6642 58.6989 19.6642C59.3277 19.6642 59.8936 19.5384 60.4281 19.3182C60.9626 19.0979 61.4342 18.7833 61.8429 18.3743C62.2516 17.9652 62.566 17.4933 62.7861 16.9899C63.0062 16.455 63.1319 15.8887 63.1319 15.2909V0.0942383Z" fill="white"/>
<path d="M71.2748 22.8108L80.5497 0.0629883L89.8246 22.8108H86.4604L85.7688 21.0174H75.3935L74.6704 22.8108H71.2748ZM76.4939 18.0913H84.6055L80.5497 7.67705L76.4939 18.0913Z" fill="white"/>
<path d="M107.18 11.5156C107.337 11.61 107.463 11.7358 107.588 11.8617C107.714 11.9875 107.84 12.1134 107.934 12.2392C108.406 12.837 108.783 13.4978 109.066 14.2214C109.349 14.9451 109.475 15.7002 109.475 16.4868C109.475 16.6755 109.475 16.8329 109.443 16.9272C109.38 18.0914 109.035 19.1297 108.374 20.0735C107.808 20.9545 107.054 21.6152 106.142 22.1501C105.23 22.6535 104.224 22.9052 103.092 22.9052H101.049C99.9484 22.9052 98.9109 22.6535 97.9991 22.1501C97.0873 21.6467 96.3328 20.9545 95.7668 20.0735C95.6096 19.8218 95.421 19.5387 95.2638 19.1926L98.1563 16.9587C98.2192 17.3677 98.3449 17.7138 98.5336 18.0599C98.7222 18.406 98.9737 18.6892 99.2567 18.9723C99.5397 19.224 99.8855 19.4443 100.263 19.5701C100.64 19.7274 101.017 19.7904 101.426 19.7904H102.652C103.501 19.7904 104.224 19.5072 104.853 18.9723C105.482 18.4375 105.859 17.7453 105.953 16.9272C105.953 16.8329 105.953 16.7699 105.953 16.6755C105.953 16.5811 105.953 16.5182 105.953 16.4238C105.953 15.9833 105.859 15.5429 105.702 15.1653C105.545 14.7878 105.293 14.4417 105.01 14.127C104.727 13.8124 104.381 13.5922 103.973 13.4034C103.564 13.2146 103.155 13.1202 102.747 13.0887H100.86C100.106 13.0573 99.3825 12.9314 98.6908 12.6483C98.0305 12.3651 97.4017 11.9875 96.8672 11.5156C96.5843 11.2954 96.3328 11.0751 96.1127 10.7605C95.6411 10.1627 95.2638 9.50196 95.0123 8.77831C94.7293 8.05466 94.6035 7.29955 94.6035 6.54444V6.10396C94.6979 4.93982 95.0751 3.87008 95.704 2.95765C96.2699 2.07669 97.0244 1.41596 97.9362 0.881088C98.848 0.377679 99.8541 0.125977 100.986 0.125977H102.998C104.099 0.125977 105.136 0.377679 106.048 0.881088C106.96 1.3845 107.714 2.07669 108.28 2.95765C108.343 3.05204 108.406 3.17789 108.469 3.30374C108.532 3.42959 108.594 3.55545 108.657 3.64984L105.828 5.85225C105.639 5.09714 105.262 4.49934 104.664 3.99593C104.067 3.49252 103.375 3.24082 102.589 3.24082H101.363C100.954 3.24082 100.546 3.30374 100.168 3.46106C99.7912 3.61837 99.4453 3.80715 99.1624 4.05886C98.8794 4.31056 98.6279 4.62519 98.4393 4.97128C98.2506 5.31738 98.1249 5.69494 98.062 6.10396C98.0305 6.19834 98.0305 6.26127 98.0305 6.35566C98.0305 6.45004 98.0305 6.51297 98.0305 6.60736C98.0305 7.04784 98.1249 7.48833 98.2821 7.86588C98.4393 8.24344 98.6593 8.621 98.9737 8.90416C99.2567 9.21879 99.6025 9.43904 100.011 9.62782C100.389 9.81659 100.829 9.91098 101.237 9.94245H103.124C103.878 9.97391 104.602 10.0998 105.293 10.3829C106.048 10.6661 106.645 11.0437 107.18 11.5156Z" fill="white"/>
<path d="M125.666 0C127.238 0 128.716 0.314633 130.099 0.912431C131.483 1.51023 132.678 2.32826 133.715 3.36654C134.753 4.40482 135.539 5.60042 136.136 7.01626C136.733 8.40063 137.016 9.91086 137.016 11.5155C137.016 13.0886 136.733 14.5674 136.136 15.9518C135.539 17.3361 134.753 18.5632 133.715 19.57C132.678 20.6083 131.483 21.4263 130.099 22.0241C128.716 22.6219 127.238 22.9366 125.666 22.9366C124.094 22.9366 122.617 22.6219 121.233 22.0241C119.85 21.4263 118.655 20.6083 117.649 19.57C116.612 18.5317 115.826 17.3361 115.228 15.9518C114.631 14.5674 114.348 13.0886 114.348 11.5155C114.348 9.91086 114.631 8.43209 115.228 7.01626C115.826 5.63188 116.612 4.40482 117.649 3.36654C118.687 2.32826 119.881 1.51023 121.233 0.912431C122.617 0.314633 124.094 0 125.666 0ZM125.666 19.7273C126.735 19.7273 127.773 19.5071 128.716 19.0666C129.691 18.6261 130.508 18.0598 131.231 17.3047C131.954 16.5496 132.52 15.7001 132.929 14.6932C133.338 13.6864 133.558 12.6167 133.558 11.484C133.558 10.3513 133.338 9.2816 132.929 8.27478C132.52 7.26796 131.954 6.387 131.231 5.63189C130.508 4.87677 129.691 4.27897 128.716 3.86995C127.741 3.42947 126.735 3.20923 125.666 3.20923C124.597 3.20923 123.591 3.42947 122.617 3.86995C121.673 4.31044 120.825 4.90824 120.133 5.63189C119.41 6.387 118.844 7.26796 118.435 8.27478C118.026 9.2816 117.806 10.3513 117.806 11.484C117.806 12.6167 118.026 13.6864 118.435 14.6932C118.844 15.7001 119.41 16.5496 120.133 17.3047C120.856 18.0598 121.673 18.6261 122.617 19.0666C123.56 19.5071 124.597 19.7273 125.666 19.7273Z" fill="white"/>
<path d="M145.222 19.6331H154.497V22.9052H141.921V0.125977H145.254V19.6331H145.222Z" fill="white"/>
<path d="M0.408518 32.2493V31.8717C0.534279 31.9346 0.66004 31.9346 0.817241 31.9346C1.00588 31.9346 1.16308 31.8717 1.28884 31.7144C1.35172 31.62 1.4146 31.5571 1.44604 31.4941C1.47749 31.4312 1.54037 31.3368 1.60325 31.211L0.0941162 28.5366H0.534279L1.79189 30.8334L2.82941 28.5366H3.23814L1.88621 31.4627C1.60325 32.0919 1.28884 32.3122 0.911562 32.3122C0.69148 32.3122 0.534279 32.3122 0.408518 32.2493Z" fill="white"/>
<path d="M4.08701 32.2495V28.5054H4.49573V30.0471H6.72798V28.5054H7.13671V32.2495H6.72798V30.4246H4.49573V32.2495H4.08701Z" fill="white"/>
<path d="M8.30008 32.2495V28.5054H8.67736V31.5887L11.0039 28.5054H11.3498V32.2495H10.9725V29.1661L8.64592 32.2495H8.30008Z" fill="white"/>
<path d="M12.5444 32.2495V28.5054H14.1793C14.8395 28.5054 15.2483 28.8515 15.2483 29.4178C15.2483 29.7954 15.0596 30.11 14.7452 30.2044C15.2483 30.2988 15.5627 30.6449 15.5627 31.2112C15.5627 31.8404 15.0911 32.2495 14.3365 32.2495H12.5444ZM12.9531 30.11H14.1164C14.588 30.11 14.871 29.8897 14.871 29.5122C14.871 29.1032 14.588 28.8829 14.1164 28.8829H12.9531V30.11ZM12.9531 31.9034H14.2736C14.8395 31.9034 15.1539 31.6202 15.1539 31.1797C15.1539 30.7392 14.8395 30.4561 14.2736 30.4561H12.9531V31.9034Z" fill="white"/>
<path d="M16.6001 32.2495V28.5054H19.1782V28.8515H16.9774V30.0471H18.7695V30.3932H16.9774V31.8719H19.2411V32.218H16.6001V32.2495Z" fill="white"/>
<path d="M20.153 32.2495V28.5054H21.725C22.4796 28.5054 22.9197 28.9144 22.9197 29.5437C22.9197 30.1729 22.4796 30.5819 21.725 30.5819H20.5617V32.2495H20.153ZM21.6936 30.2358C22.228 30.2358 22.5424 29.9841 22.5424 29.5437C22.5424 29.1032 22.228 28.8515 21.6936 28.8515H20.5303V30.2358H21.6936Z" fill="white"/>
<path d="M24.2403 31.7775C23.863 31.3999 23.7058 30.9594 23.7058 30.3931C23.7058 29.8268 23.8944 29.3863 24.2403 29.0087C24.6175 28.6312 25.0577 28.4424 25.6236 28.4424C26.0324 28.4424 26.3782 28.5368 26.6612 28.7255V29.1346C26.3468 28.9143 26.0009 28.8199 25.6236 28.8199C25.1835 28.8199 24.8376 28.9773 24.5232 29.2604C24.2403 29.5436 24.0831 29.9211 24.0831 30.3931C24.0831 30.8336 24.2403 31.2111 24.5232 31.5258C24.8062 31.8089 25.1835 31.9662 25.6236 31.9662C26.0638 31.9662 26.4096 31.8404 26.724 31.5887V31.9977C26.4096 32.2179 26.0324 32.3438 25.5922 32.3438C25.0891 32.3123 24.6175 32.155 24.2403 31.7775Z" fill="white"/>
<path d="M27.3214 32.2492L28.9877 28.4736H29.365L31.0313 32.2492H30.6226L30.151 31.2109H28.2017L27.7615 32.2492H27.3214ZM28.3275 30.8648H30.0252L29.1764 28.977L28.3275 30.8648Z" fill="white"/>
<path d="M31.4086 31.9032C31.4401 31.9032 31.503 31.9032 31.5658 31.9032C31.9117 31.9032 32.0689 31.6515 32.1946 31.2424C32.2261 31.1166 32.2575 30.9593 32.289 30.7705C32.3204 30.5817 32.3204 30.3929 32.3518 30.2042C32.3518 30.0154 32.3833 29.7951 32.3833 29.5434L32.4147 28.5366H34.7413V32.2807H34.3326V28.8827H32.7606L32.7291 29.7322C32.6977 30.4244 32.6662 30.8649 32.5719 31.3054C32.4147 31.9346 32.1318 32.2493 31.5658 32.2493C31.503 32.2493 31.4401 32.2493 31.4086 32.2493V31.9032Z" fill="white"/>
<path d="M35.9047 32.2495V28.5054H36.3134V29.8897H37.4452C37.854 29.8897 38.1998 29.9841 38.4199 30.2044C38.6714 30.4246 38.7657 30.7078 38.7657 31.0539C38.7657 31.7461 38.2627 32.218 37.4138 32.218H35.9047V32.2495ZM36.3134 31.9034H37.4138C38.0426 31.9034 38.3884 31.6202 38.3884 31.0853C38.3884 30.5505 38.0426 30.2673 37.4138 30.2673H36.3134V31.9034Z" fill="white"/>
<path d="M39.7087 32.2495V28.5054H40.1174V30.0471H42.3497V28.5054H42.7584V32.2495H42.3497V30.4246H40.1174V32.2495H39.7087Z" fill="white"/>
<path d="M43.9217 32.2495V28.5054H44.3304V29.8897H45.3051C45.7138 29.8897 46.0597 29.9841 46.2797 30.2044C46.5313 30.4246 46.6256 30.7078 46.6256 31.0539C46.6256 31.7461 46.1225 32.218 45.2737 32.218H43.9217V32.2495ZM44.3304 31.9034H45.2737C45.9025 31.9034 46.2483 31.6202 46.2483 31.0853C46.2483 30.5505 45.9025 30.2673 45.2737 30.2673H44.3304V31.9034ZM47.2229 32.2495V28.5054H47.6317V32.2495H47.2229Z" fill="white"/>
<path d="M48.8265 32.2494V28.5053H49.2038V31.5887L51.5304 28.5053H51.8762V32.2494H51.499V29.166L49.1724 32.2494H48.8265ZM49.4553 27.4355H49.8012C49.8012 27.7187 50.0213 27.939 50.3671 27.939C50.6815 27.939 50.9016 27.7187 50.9016 27.4355H51.2474C51.2474 27.6873 51.1531 27.876 50.9959 28.0333C50.8387 28.1907 50.6186 28.2536 50.3671 28.2536C49.8012 28.2536 49.4553 27.939 49.4553 27.4355Z" fill="white"/>
<path d="M54.6428 32.2495V28.5054H55.0201V31.5887L57.3466 28.5054H57.6925V32.2495H57.3152V29.1661L54.9886 32.2495H54.6428Z" fill="white"/>
<path d="M58.9186 32.2495V28.5054H59.3273V30.0471H61.5596V28.5054H61.9683V32.2495H61.5596V30.4246H59.3273V32.2495H58.9186Z" fill="white"/>
<path d="M63.1317 32.2495V28.5054H65.647V28.8515H63.509V32.2495H63.1317Z" fill="white"/>
<path d="M66.4958 32.2495V28.5054H66.8731V31.5887L69.1997 28.5054H69.5455V32.2495H69.1683V29.1661L66.8417 32.2495H66.4958Z" fill="white"/>
<path d="M70.7718 32.2495V28.5054H73.3185V28.8515H71.1491V29.9212H72.2809C72.6896 29.9212 73.0355 30.0156 73.2556 30.2358C73.4757 30.4561 73.6014 30.7392 73.6014 31.0853C73.6014 31.7775 73.0984 32.2495 72.2809 32.2495H70.7718ZM71.1491 31.9034H72.2495C72.8783 31.9034 73.2241 31.6202 73.2241 31.0853C73.2241 30.5819 72.8783 30.2988 72.2495 30.2988H71.1491V31.9034Z" fill="white"/>
<path d="M74.6388 32.2495V28.5054H75.0161V31.5887L77.3427 28.5054H77.6885V32.2495H77.3112V29.1661L74.9847 32.2495H74.6388Z" fill="white"/>
<path d="M79.858 28.8827H78.5689V28.5366H81.5557V28.8827H80.2667V32.2807H79.858V28.8827Z" fill="white"/>
<path d="M83.8508 28.4424C84.3853 28.4424 84.8255 28.6312 85.2028 29.0087C85.5486 29.3863 85.7372 29.8268 85.7372 30.3931C85.7372 30.9594 85.5486 31.3999 85.2028 31.7775C84.8569 32.155 84.4168 32.3438 83.8508 32.3438C83.2849 32.3438 82.8762 32.155 82.4989 31.7775C82.1216 31.3999 81.9644 30.928 81.9644 30.3931C81.9644 29.8582 82.1531 29.3863 82.4989 29.0087C82.8447 28.6312 83.3163 28.4424 83.8508 28.4424ZM83.8508 31.9662C84.2596 31.9662 84.6054 31.8089 84.8884 31.5258C85.1713 31.2111 85.3285 30.865 85.3285 30.3931C85.3285 29.9211 85.1713 29.5751 84.8884 29.2604C84.6054 28.9458 84.2596 28.8199 83.8508 28.8199C83.4421 28.8199 83.0963 28.9773 82.8133 29.2604C82.5303 29.5751 82.3731 29.9211 82.3731 30.3931C82.3731 30.865 82.5303 31.2111 82.8133 31.5258C83.0648 31.8089 83.4421 31.9662 83.8508 31.9662Z" fill="white"/>
<path d="M86.7747 32.2495V28.5054H88.3467C89.1013 28.5054 89.5414 28.9144 89.5414 29.5437C89.5414 30.1729 89.1013 30.5819 88.3467 30.5819H87.1834V32.2495H86.7747ZM87.1834 30.2358H88.3467C88.8812 30.2358 89.1956 29.9841 89.1956 29.5437C89.1956 29.1032 88.8812 28.8515 88.3467 28.8515H87.1834V30.2358Z" fill="white"/>
<path d="M92.0567 32.2495V28.5054H92.4655V30.0471H94.6977V28.5054H95.1064V32.2495H94.6977V30.4246H92.434V32.2495H92.0567Z" fill="white"/>
<path d="M95.8923 32.2492L97.5586 28.4736H97.9359L99.6022 32.2492H99.1935L98.7219 31.2109H96.7726L96.3325 32.2492H95.8923ZM96.8984 30.8648H98.5962L97.7473 28.977L96.8984 30.8648Z" fill="white"/>
<path d="M100.829 28.5054V30.1414L102.558 28.5054H103.092L101.269 30.2044L103.375 32.2495H102.809L100.829 30.3302V32.2495H100.42V28.5054H100.829Z" fill="white"/>
<path d="M104.13 32.2495V28.5054H104.507V31.5887L106.834 28.5054H107.18V32.2495H106.802V29.1661L104.476 32.2495H104.13Z" fill="white"/>
<path d="M108.406 28.5054H111.33V32.2495H110.921V28.8829H108.783V32.2809H108.406V28.5054Z" fill="white"/>
<path d="M112.524 32.2495V28.5054H112.902V31.5887L115.228 28.5054H115.574V32.2495H115.197V29.1661L112.87 32.2495H112.524Z" fill="white"/>
<path d="M118.341 32.2495V28.5054H118.718V31.5887L121.045 28.5054H121.39V32.2495H121.013V29.1661L118.686 32.2495H118.341Z" fill="white"/>
<path d="M124.566 28.5054V30.1414L126.295 28.5054H126.83L125.006 30.2044L127.113 32.2495H126.547L124.566 30.3302V32.2495H124.189V28.5054H124.566Z" fill="white"/>
<path d="M129.313 28.4424C129.848 28.4424 130.288 28.6312 130.665 29.0087C131.011 29.3863 131.2 29.8268 131.2 30.3931C131.2 30.9594 131.011 31.3999 130.665 31.7775C130.319 32.155 129.879 32.3438 129.313 32.3438C128.747 32.3438 128.339 32.155 127.961 31.7775C127.584 31.3999 127.427 30.928 127.427 30.3931C127.427 29.8582 127.616 29.3863 127.961 29.0087C128.307 28.6312 128.747 28.4424 129.313 28.4424ZM129.313 31.9662C129.722 31.9662 130.068 31.8089 130.351 31.5258C130.634 31.2111 130.791 30.865 130.791 30.3931C130.791 29.9211 130.634 29.5751 130.351 29.2604C130.068 28.9458 129.722 28.8199 129.313 28.8199C128.905 28.8199 128.559 28.9773 128.276 29.2604C127.993 29.5751 127.836 29.9211 127.836 30.3931C127.836 30.865 127.993 31.2111 128.276 31.5258C128.527 31.8089 128.873 31.9662 129.313 31.9662Z" fill="white"/>
<path d="M132.237 32.2495V28.5054H133.809C134.564 28.5054 135.004 28.9144 135.004 29.5437C135.004 30.1729 134.564 30.5819 133.809 30.5819H132.646V32.2495H132.237ZM132.646 30.2358H133.809C134.344 30.2358 134.658 29.9841 134.658 29.5437C134.658 29.1032 134.344 28.8515 133.809 28.8515H132.646V30.2358Z" fill="white"/>
<path d="M135.947 32.2495V28.5054H137.519C138.274 28.5054 138.714 28.9144 138.714 29.5437C138.714 30.1729 138.274 30.5819 137.519 30.5819H136.356V32.2495H135.947ZM136.324 30.2358H137.488C138.022 30.2358 138.337 29.9841 138.337 29.5437C138.337 29.1032 138.022 28.8515 137.488 28.8515H136.324V30.2358Z" fill="white"/>
<path d="M141.386 28.4424C141.921 28.4424 142.361 28.6312 142.738 29.0087C143.084 29.3863 143.273 29.8268 143.273 30.3931C143.273 30.9594 143.084 31.3999 142.738 31.7775C142.392 32.155 141.952 32.3438 141.386 32.3438C140.82 32.3438 140.412 32.155 140.034 31.7775C139.657 31.3999 139.5 30.928 139.5 30.3931C139.5 29.8582 139.689 29.3863 140.034 29.0087C140.38 28.6312 140.82 28.4424 141.386 28.4424ZM141.386 31.9662C141.795 31.9662 142.141 31.8089 142.424 31.5258C142.707 31.2111 142.864 30.865 142.864 30.3931C142.864 29.9211 142.707 29.5751 142.424 29.2604C142.141 28.9458 141.795 28.8199 141.386 28.8199C140.978 28.8199 140.632 28.9773 140.349 29.2604C140.066 29.5751 139.909 29.9211 139.909 30.3931C139.909 30.865 140.066 31.2111 140.349 31.5258C140.6 31.8089 140.946 31.9662 141.386 31.9662Z" fill="white"/>
<path d="M143.87 32.0294V31.6204C144.247 31.8406 144.625 31.935 145.065 31.935C145.788 31.935 146.228 31.6204 146.228 31.1484C146.228 30.7079 145.82 30.3933 145.191 30.3933H144.719V30.0472H145.222C145.757 30.0472 146.071 29.827 146.071 29.418C146.071 29.0404 145.694 28.7887 145.159 28.7887C144.782 28.7887 144.436 28.8831 144.059 29.0404V28.6628C144.436 28.5055 144.813 28.4111 145.191 28.4111C145.568 28.4111 145.882 28.5055 146.102 28.6628C146.354 28.8516 146.48 29.0719 146.48 29.355C146.48 29.5753 146.417 29.764 146.291 29.8899C146.165 30.0157 146.04 30.1101 145.882 30.1731C146.102 30.236 146.26 30.3618 146.417 30.5192C146.574 30.6765 146.668 30.8967 146.668 31.1484C146.668 31.4945 146.543 31.7462 146.26 31.9665C145.977 32.1867 145.631 32.2811 145.159 32.2811C144.656 32.3126 144.216 32.2182 143.87 32.0294Z" fill="white"/>
<path d="M147.674 32.2495V28.5054H148.052V31.5887L150.378 28.5054H150.724V32.2495H150.347V29.1661L148.02 32.2495H147.674Z" fill="white"/>
<path d="M151.95 32.2495V28.5054H152.328V31.5887L154.654 28.5054H155V32.2495H154.623V29.1661L152.296 32.2495H151.95Z" fill="white"/>
</svg>
