<svg width="44" height="44" viewBox="0 0 44 44" fill="none" xmlns="http://www.w3.org/2000/svg">
<path d="M16.7782 5.2775C16.7782 5.6217 16.5499 5.85116 16.2075 5.85116C15.9221 5.85116 15.6368 5.56433 15.6368 5.2775C15.6368 3.72861 16.8923 2.46655 18.4331 2.46655C18.7756 2.46655 19.0038 2.69602 19.0038 3.04022C19.0038 3.38441 18.7756 3.61388 18.4331 3.61388C17.52 3.61388 16.7782 4.35964 16.7782 5.2775Z" fill="#A0F16B"/>
<path fill-rule="evenodd" clip-rule="evenodd" d="M25.0532 5.9661C25.0532 9.23598 22.371 11.9322 19.1181 11.9322C15.8652 11.9322 13.1829 9.23598 13.1829 5.9661C13.1829 2.69622 15.8652 0 19.1181 0C22.428 0 25.0532 2.69622 25.0532 5.9661ZM23.9118 5.9661C23.9118 3.32725 21.7432 1.14733 19.1181 1.14733C16.4929 1.14733 14.3243 3.32725 14.3243 5.9661C14.3243 8.60495 16.4929 10.7849 19.1181 10.7849C21.7432 10.7849 23.9118 8.60495 23.9118 5.9661Z" fill="#A0F16B"/>
<path d="M12.498 22.8892C12.8404 22.8892 13.0687 22.6598 13.0687 22.3156C13.0687 21.9714 13.354 21.6272 13.7535 21.6272C14.0959 21.6272 14.3242 21.3977 14.3242 21.0535C14.3242 20.7093 14.0959 20.4799 13.7535 20.4799C12.7833 20.4799 11.9273 21.283 11.9273 22.3156C11.9273 22.6598 12.2126 22.8892 12.498 22.8892Z" fill="#A0F16B"/>
<path fill-rule="evenodd" clip-rule="evenodd" d="M17.6343 22.3726C17.6343 24.4951 15.9222 26.2735 13.7536 26.2735C11.585 26.2735 9.81586 24.4951 9.87292 22.3726C9.87292 20.25 11.6421 18.4717 13.7536 18.4717C15.8651 18.4717 17.6343 20.1927 17.6343 22.3726ZM16.4929 22.3152C16.4929 20.8237 15.2944 19.5616 13.7536 19.5616C12.2127 19.5616 11.0143 20.8237 11.0143 22.3152C11.0143 23.8067 12.2698 25.0688 13.7536 25.0688C15.2374 25.0688 16.4929 23.8067 16.4929 22.3152Z" fill="#A0F16B"/>
<path d="M40.1193 30.7483C39.1492 30.7483 38.2932 31.5514 38.2932 32.584C38.2932 32.9282 38.5214 33.1577 38.8638 33.1577C39.2062 33.1577 39.4345 32.9282 39.4345 32.584C39.4345 32.2398 39.7199 31.8956 40.1193 31.8956C40.4618 31.8956 40.69 31.6662 40.69 31.322C40.69 30.9778 40.4047 30.7483 40.1193 30.7483Z" fill="#A0F16B"/>
<path fill-rule="evenodd" clip-rule="evenodd" d="M36.2386 32.5268C36.2386 30.4042 37.9506 28.6259 40.1193 28.6259C42.2308 28.6259 43.9999 30.3468 43.9999 32.5268C43.9999 34.6493 42.2308 36.4277 40.1193 36.4277C38.0077 36.4277 36.2386 34.7067 36.2386 32.5268ZM37.38 32.5841C37.38 34.0757 38.5784 35.3377 40.1193 35.3377C41.603 35.3377 42.8586 34.0757 42.8586 32.5841C42.8586 31.0926 41.603 29.8305 40.1193 29.8305C38.6355 29.8305 37.38 31.0926 37.38 32.5841Z" fill="#A0F16B"/>
<path d="M38.5213 8.60482C38.8637 8.60482 39.092 8.37535 39.092 8.03116C39.092 7.68696 39.3773 7.34276 39.7768 7.34276C40.1192 7.34276 40.3475 7.1133 40.3475 6.7691C40.3475 6.4249 40.1192 6.19543 39.7768 6.19543C38.8067 6.19543 37.9506 6.99856 37.9506 8.03116C37.9506 8.31799 38.1789 8.60482 38.5213 8.60482Z" fill="#A0F16B"/>
<path fill-rule="evenodd" clip-rule="evenodd" d="M43.6004 8.03128C43.6004 10.1538 41.8884 11.9322 39.7198 11.9322C37.5512 11.9322 35.8391 10.1538 35.8391 8.03128C35.8391 5.90873 37.5512 4.13037 39.7198 4.13037C41.8313 4.13037 43.6004 5.85136 43.6004 8.03128ZM42.4591 7.97391C42.4591 6.48239 41.2606 5.22033 39.7198 5.22033C38.1789 5.22033 36.9805 6.48239 36.9805 7.97391C36.9805 9.46544 38.1789 10.7275 39.7198 10.7275C41.2036 10.7275 42.4591 9.46544 42.4591 7.97391Z" fill="#A0F16B"/>
<path d="M27.6213 19.103C27.6213 19.4472 27.393 19.6767 27.0506 19.6767C26.7653 19.6767 26.4799 19.3899 26.4799 19.103C26.4799 16.2347 28.7627 13.9401 31.6161 13.9401C31.9585 13.9401 32.1868 14.1695 32.1868 14.5137C32.1868 14.8579 31.9585 15.0874 31.6161 15.0874C29.3904 15.0874 27.6213 16.8657 27.6213 19.103Z" fill="#A0F16B"/>
<path fill-rule="evenodd" clip-rule="evenodd" d="M31.6731 27.1917C35.9532 27.1917 39.4344 23.6923 39.4344 19.3898C39.4344 15.0874 35.9532 11.588 31.6731 11.588C27.3929 11.588 23.9117 15.0874 23.9117 19.3898C23.9117 23.6923 27.3929 27.1917 31.6731 27.1917ZM31.6731 12.7927C35.3255 12.7927 38.293 15.7758 38.293 19.4472C38.293 23.1186 35.3255 26.1017 31.6731 26.1017C28.0207 26.1017 25.0531 23.1186 25.0531 19.4472C25.0531 15.7758 28.0207 12.7927 31.6731 12.7927Z" fill="#A0F16B"/>
<path d="M20.0311 34.3049C20.0311 34.6491 19.8029 34.8786 19.4605 34.8786C19.1751 34.8786 18.8898 34.6491 18.8898 34.3049C18.8898 33.0428 19.917 32.0103 21.1725 32.0103C21.5149 32.0103 21.7432 32.2397 21.7432 32.5839C21.7432 32.9281 21.5149 33.1576 21.1725 33.1576C20.5448 33.1576 20.0311 33.6739 20.0311 34.3049Z" fill="#A0F16B"/>
<path fill-rule="evenodd" clip-rule="evenodd" d="M21.2295 39.4104C23.8547 39.4104 25.9662 37.2878 25.9662 34.649C25.9662 32.0101 23.8547 29.8876 21.2295 29.8876C18.6043 29.8876 16.4928 32.0101 16.4928 34.649C16.4928 37.2878 18.6043 39.4104 21.2295 39.4104ZM21.2295 31.0923C23.2269 31.0923 24.8248 32.6985 24.8248 34.7063C24.8248 36.7142 23.2269 38.3204 21.2295 38.3204C19.2321 38.3204 17.6342 36.7142 17.6342 34.7063C17.6342 32.6985 19.2321 31.0923 21.2295 31.0923Z" fill="#A0F16B"/>
<path d="M4.16603 4.64679C4.16603 4.99099 3.93776 5.22045 3.59534 5.22045C3.31 5.22045 3.02466 4.93362 3.02466 4.64679C3.02466 3.7863 3.70948 3.0979 4.56551 3.0979C4.90792 3.0979 5.1362 3.32737 5.1362 3.67156C5.1362 4.01576 4.90792 4.24523 4.56551 4.24523C4.33724 4.24523 4.16603 4.41733 4.16603 4.64679Z" fill="#A0F16B"/>
<path fill-rule="evenodd" clip-rule="evenodd" d="M4.56542 8.71955C6.67696 8.71955 8.38902 6.99857 8.38902 4.87601C8.38902 2.75346 6.67696 1.03247 4.56542 1.03247C2.45388 1.03247 0.741821 2.75346 0.741821 4.87601C0.741821 6.99857 2.45388 8.71955 4.56542 8.71955ZM4.56542 2.1798C6.04921 2.1798 7.24765 3.38449 7.24765 4.87601C7.24765 6.36754 6.04921 7.57223 4.56542 7.57223C3.08164 7.57223 1.88319 6.36754 1.88319 4.87601C1.88319 3.38449 3.08164 2.1798 4.56542 2.1798Z" fill="#A0F16B"/>
<path fill-rule="evenodd" clip-rule="evenodd" d="M12.8404 29.3715C12.8404 30.7483 11.699 31.8383 10.3864 31.8383C9.07387 31.8383 7.9325 30.7483 7.9325 29.3715C7.9325 27.9947 9.0168 26.9048 10.3864 26.9048C11.7561 26.9048 12.8404 27.9947 12.8404 29.3715ZM11.699 29.4289C11.699 28.6831 11.0713 28.1095 10.3864 28.1095C9.70162 28.1095 9.07387 28.6831 9.07387 29.4289C9.07387 30.1747 9.64455 30.7483 10.3864 30.7483C11.1283 30.7483 11.699 30.1747 11.699 29.4289Z" fill="#A0F16B"/>
<path fill-rule="evenodd" clip-rule="evenodd" d="M2.39691 39.64C2.39691 40.8447 3.36708 41.8199 4.56552 41.8199C5.76396 41.8199 6.73413 40.8447 6.73413 39.64C6.73413 38.4353 5.76396 37.4601 4.56552 37.4601C3.36708 37.4601 2.39691 38.4353 2.39691 39.64ZM5.59276 39.64C5.59276 40.2137 5.13621 40.6726 4.56552 40.6726C3.99483 40.6726 3.53828 40.2137 3.53828 39.64C3.53828 39.0663 3.99483 38.6074 4.56552 38.6074C5.13621 38.6074 5.59276 39.0663 5.59276 39.64Z" fill="#A0F16B"/>
<path fill-rule="evenodd" clip-rule="evenodd" d="M2.16861 15.6611C3.36705 15.6611 4.33722 16.6364 4.33722 17.8411C4.33722 19.0457 3.36705 20.021 2.16861 20.021C0.970167 20.021 0 19.0457 0 17.8411C0 16.6364 0.970167 15.6611 2.16861 15.6611ZM2.16861 16.8085C1.59792 16.8085 1.14137 17.2674 1.14137 17.8411C1.14137 18.4147 1.59792 18.8736 2.16861 18.8736C2.7393 18.8736 3.19584 18.4147 3.19584 17.8411C3.19584 17.2674 2.7393 16.8085 2.16861 16.8085Z" fill="#A0F16B"/>
<path fill-rule="evenodd" clip-rule="evenodd" d="M33.6705 41.5333C33.6705 40.1565 32.5862 39.0665 31.2166 39.0665C29.8469 39.0665 28.7626 40.1565 28.7626 41.5333C28.7626 42.9101 29.8469 44 31.2166 44C32.5862 44 33.6705 42.8527 33.6705 41.5333ZM29.904 41.5333C29.904 40.8449 30.4747 40.2139 31.2166 40.2139C31.9585 40.2139 32.5292 40.7875 32.5292 41.5333C32.5292 42.279 31.9585 42.8527 31.2166 42.8527C30.4747 42.8527 29.904 42.2217 29.904 41.5333Z" fill="#A0F16B"/>
</svg>
