<svg width="40" height="44" viewBox="0 0 40 44" fill="none" xmlns="http://www.w3.org/2000/svg">
<path d="M13.1274 25.9033C13.2889 25.3647 13.3966 24.7723 13.3966 24.0184C13.3966 22.9952 13.2351 22.2413 12.912 21.7027C12.5889 21.1642 12.158 20.7872 11.6734 20.6257C11.3502 20.518 10.7579 20.4103 10.0039 20.4103H7.95752V27.7881H10.0039C10.6502 27.7881 11.1348 27.7342 11.5118 27.6265C11.8888 27.5188 12.158 27.3573 12.3734 27.1419C12.6966 26.8188 12.912 26.3879 13.1274 25.9033Z" fill="#01539F"/>
<path d="M31.5451 0H2.80034V16.2635H0V31.3423H2.85419V43.9977H40V8.45488L31.5451 0ZM31.8682 1.83099L38.2767 8.23947H31.8682V1.83099ZM38.9229 42.8668H3.8774V31.3423H38.8691V42.8668H38.9229ZM6.66517 28.9189V19.2254H10.004C10.758 19.2254 11.3504 19.2793 11.7273 19.387C12.2659 19.4947 12.7505 19.7639 13.1275 20.0871C13.6122 20.5179 14.043 21.0564 14.2584 21.7565C14.4738 22.4566 14.6354 23.2105 14.6354 24.0722C14.6354 24.8261 14.5277 25.4723 14.3661 26.0109C14.2045 26.6032 13.9891 27.0341 13.7199 27.411C13.4506 27.788 13.1813 28.0573 12.8582 28.2727C12.5351 28.4881 12.1581 28.6496 11.7273 28.7573C11.2965 28.8651 10.758 28.9189 10.1656 28.9189H6.66517ZM16.0355 24.2337C16.0355 22.6181 16.4664 21.3795 17.328 20.464C18.1897 19.5485 19.3206 19.1177 20.6669 19.1177C21.5824 19.1177 22.3902 19.3331 23.0902 19.7639C23.7903 20.1948 24.3827 20.7871 24.7597 21.5411C25.1366 22.295 25.2982 23.1567 25.2982 24.126C25.2982 25.0954 25.0828 26.0109 24.7058 26.7648C24.3289 27.5187 23.7365 28.1111 23.0364 28.5419C22.2825 28.9189 21.5285 29.1343 20.6669 29.1343C19.7514 29.1343 18.9436 28.9189 18.2435 28.4881C17.5434 28.0573 17.0049 27.4649 16.6279 26.6571C16.251 25.8493 16.0355 25.0954 16.0355 24.2337ZM28.314 26.1724C28.5294 26.7648 28.9063 27.2495 29.4449 27.5726C29.9295 27.8957 30.5219 28.0034 31.1143 28.0034C31.8144 28.0034 32.4606 27.788 32.9453 27.3572C33.43 26.9264 33.8069 26.334 33.9685 25.5262L35.261 25.8493C34.9917 26.9264 34.507 27.6803 33.8069 28.2727C33.1069 28.8112 32.2452 29.0805 31.222 29.0805C30.1988 29.0805 29.3372 28.8651 28.6909 28.4342C28.0447 28.0034 27.56 27.411 27.1831 26.6032C26.8599 25.7954 26.6445 24.9338 26.6445 24.0183C26.6445 22.9951 26.8599 22.1335 27.2369 21.3795C27.6139 20.6256 28.1524 20.0332 28.9063 19.6562C29.6064 19.2793 30.4142 19.0639 31.2759 19.0639C32.2452 19.0639 33.053 19.3331 33.6992 19.8178C34.3455 20.3025 34.8301 21.0026 35.0994 21.9181L33.8608 22.2412C33.6454 21.5411 33.3223 21.0026 32.8914 20.6794C32.4606 20.3563 31.9221 20.1948 31.2759 20.1948C30.5219 20.1948 29.9295 20.3563 29.391 20.7333C28.9063 21.1103 28.5294 21.5949 28.314 22.1873C28.0985 22.7797 27.9908 23.4259 27.9908 24.0722C27.937 24.8261 28.0447 25.58 28.314 26.1724ZM38.9229 16.2635H3.8774V1.07705H30.7912V9.31652H38.9229V16.2635Z" fill="#01539F"/>
<path d="M20.667 28.0032C21.6363 28.0032 22.4441 27.6801 23.0365 26.98C23.6827 26.2799 23.952 25.3644 23.952 24.072C23.952 23.2642 23.8443 22.618 23.575 22.0256C23.3058 21.4332 22.9288 21.0024 22.3903 20.6793C21.8518 20.3561 21.3132 20.1946 20.667 20.1946C19.7515 20.1946 18.9976 20.5177 18.2975 21.1101C17.6512 21.7563 17.3281 22.7795 17.3281 24.2335C17.3281 25.4183 17.6512 26.3338 18.2436 26.98C18.9437 27.6801 19.7515 28.0032 20.667 28.0032Z" fill="#01539F"/>
</svg>
