<svg width="34" height="30" viewBox="0 0 34 30" fill="none" xmlns="http://www.w3.org/2000/svg">
<path d="M33.4367 24.6432C33.1178 24.153 32.6778 23.7503 32.1578 23.4725C31.6378 23.1946 31.0548 23.0508 30.463 23.0543C29.8712 23.0579 29.29 23.2087 28.7734 23.4927C28.2569 23.7767 27.822 24.1847 27.5091 24.6786L22.4887 21.8304C22.5759 21.6878 22.655 21.5406 22.7258 21.3895C23.2862 20.2257 23.4564 18.9169 23.2118 17.6519C22.9673 16.3868 22.3206 15.2307 21.3651 14.3501C20.2424 13.3247 18.7737 12.7434 17.2415 12.7183V6.90024C17.7426 6.88213 18.2339 6.75869 18.6824 6.53822C19.1309 6.31775 19.5261 6.00537 19.8415 5.62211C20.1569 5.23885 20.3851 4.7936 20.5107 4.31634C20.6364 3.83908 20.6566 3.34089 20.5701 2.85529C20.4835 2.3697 20.2921 1.90799 20.0088 1.50123C19.7255 1.09447 19.3568 0.752104 18.9276 0.497188C18.4985 0.242272 18.0187 0.0807184 17.5207 0.0234033C17.0227 -0.0339118 16.518 0.0143424 16.0405 0.164916C15.5982 0.299638 15.1879 0.520195 14.8337 0.813547C14.4796 1.1069 14.1889 1.46709 13.9788 1.87282C13.7667 2.27621 13.6377 2.71685 13.5994 3.1694C13.5611 3.62194 13.6141 4.07748 13.7554 4.50982C13.8967 4.94216 14.1235 5.34278 14.4228 5.68865C14.7221 6.03452 15.0879 6.31882 15.4993 6.52521C15.9554 6.75863 16.4595 6.88688 16.9735 6.90024V12.7081C16.4091 12.7192 15.849 12.8061 15.3086 12.9666C15.1127 13.0274 14.9169 13.0933 14.7262 13.1693C13.3131 13.7537 12.1711 14.8331 11.5216 16.1984C10.8721 17.5637 10.7614 19.1174 11.2108 20.5584C11.3246 20.9089 11.4713 21.2482 11.649 21.572L6.49455 24.5063C6.16986 23.9966 5.71551 23.579 5.1764 23.2948C4.63728 23.0106 4.03208 22.8696 3.42059 22.8858C2.8091 22.902 2.21249 23.0749 1.68974 23.3872C1.16698 23.6996 0.736169 24.1406 0.43988 24.6668C0.14359 25.193 -0.00792208 25.7861 0.000319112 26.3875C0.0085603 26.9889 0.176269 27.5778 0.48687 28.0959C0.797471 28.6141 1.24021 29.0436 1.77134 29.3419C2.30246 29.6403 2.90359 29.7973 3.5153 29.7973H3.6957C4.28631 29.7689 4.86006 29.5943 5.36369 29.2897C5.86733 28.985 6.28453 28.5602 6.57657 28.0547C6.86862 27.5491 7.02604 26.9792 7.03423 26.3979C7.04242 25.8166 6.90111 25.2426 6.62341 24.7293L11.7778 21.795C12.3126 22.7318 13.0928 23.5107 14.0373 24.0508C14.9818 24.5909 16.0561 24.8724 17.1487 24.8662C17.751 24.8686 18.3503 24.7832 18.927 24.6128C19.3639 24.4898 19.7857 24.3198 20.1847 24.106C21.0694 23.6197 21.8156 22.9227 22.3547 22.0788L27.3751 24.927C27.2279 25.2097 27.1171 25.5093 27.0452 25.8189C26.8508 26.7146 27.0253 27.6496 27.5306 28.419C28.0359 29.1884 28.8307 29.7296 29.741 29.924C29.9869 29.9741 30.2373 29.9996 30.4884 30C31.1198 30.0003 31.7396 29.8331 32.2824 29.516C32.8253 29.199 33.2711 28.7438 33.573 28.1985C33.8748 27.6533 34.0215 27.038 33.9975 26.4177C33.9735 25.7973 33.7798 25.1948 33.4367 24.6736V24.6432ZM15.9942 5.62818C15.7037 5.48154 15.4458 5.27972 15.2352 5.03441C15.0246 4.78909 14.8656 4.50515 14.7674 4.19901C14.5663 3.58273 14.6221 2.91316 14.9227 2.33734C15.2232 1.76151 15.7439 1.3265 16.3704 1.12783C16.6167 1.04887 16.8743 1.00951 17.1333 1.01127C17.5258 1.01224 17.9126 1.10426 18.2621 1.27987C18.5525 1.42622 18.8108 1.62741 19.0222 1.87194C19.2335 2.11646 19.3938 2.39953 19.4938 2.70497C19.5938 3.01042 19.6317 3.33225 19.6052 3.65208C19.5787 3.97191 19.4884 4.28348 19.3394 4.56897C19.0377 5.14474 18.5163 5.57949 17.8893 5.77802C17.2623 5.97655 16.5808 5.92267 15.9942 5.62818ZM5.33481 27.9931C5.06325 28.2966 4.71935 28.529 4.33393 28.6697C3.9485 28.8103 3.53361 28.8547 3.12644 28.7989C2.71927 28.7431 2.33255 28.5888 2.00095 28.3499C1.66935 28.1109 1.40324 27.7948 1.22647 27.4299C1.04971 27.0649 0.967807 26.6626 0.98812 26.2589C1.00843 25.8551 1.13032 25.4627 1.34286 25.1167C1.5554 24.7707 1.85194 24.4819 2.20591 24.2764C2.55987 24.0708 2.96019 23.9548 3.37097 23.9387H3.49468C4.13182 23.9392 4.7444 24.1804 5.20582 24.6124C5.66724 25.0444 5.94223 25.6342 5.97396 26.2598C6.00214 26.8979 5.77236 27.521 5.33481 27.9931ZM19.6744 23.1988C19.063 23.5326 18.3889 23.7405 17.6932 23.81C16.9974 23.8795 16.2946 23.809 15.6274 23.6029C14.9603 23.3968 14.3428 23.0594 13.8124 22.6112C13.2821 22.163 12.8501 21.6134 12.5427 20.9958C12.2353 20.3782 12.0589 19.7055 12.0243 19.0188C11.9897 18.3321 12.0976 17.6456 12.3414 17.0011C12.5852 16.3567 12.9598 15.7677 13.4424 15.2702C13.9251 14.7726 14.5057 14.3768 15.1488 14.1069C15.3086 14.041 15.4736 13.9852 15.6643 13.9346C16.1453 13.7897 16.6456 13.7163 17.1487 13.7166C18.4631 13.7185 19.7281 14.2091 20.6898 15.0901C21.3472 15.6982 21.8307 16.4654 22.0918 17.3149C22.2808 17.9232 22.349 18.5615 22.2929 19.1951C22.2302 20.0191 21.9623 20.8153 21.5129 21.5135C21.0634 22.2117 20.4462 22.7904 19.7156 23.1988H19.6744ZM32.911 27.0302C32.7893 27.5811 32.4772 28.0736 32.0278 28.4237C31.5784 28.7738 31.0194 28.96 30.4461 28.9504C29.8728 28.9408 29.3205 28.7362 28.8834 28.3713C28.4463 28.0064 28.1514 27.5038 28.0488 26.9491C27.9463 26.3944 28.0424 25.8219 28.3209 25.3291C28.5994 24.8363 29.043 24.4536 29.5762 24.2463C30.1094 24.0389 30.6992 24.0197 31.2452 24.1918C31.7912 24.364 32.2597 24.7169 32.5708 25.1905C32.7486 25.4597 32.8703 25.761 32.9287 26.0768C32.9871 26.3926 32.981 26.7167 32.911 27.0302Z" fill="white"/>
</svg>
