<svg width="80" height="74" viewBox="0 0 80 74" fill="none" xmlns="http://www.w3.org/2000/svg">
<path d="M79.2674 72.6076H71.3553V53.4801C71.3553 53.1136 71.0623 52.8205 70.696 52.8205H67.6923V42.3407C71.3553 42.0475 74.2857 38.8963 74.2857 35.1587C74.2857 31.2013 71.0623 27.9034 67.033 27.9034C65.9341 27.9034 64.8352 28.1966 63.8828 28.6363L25.5678 16.6175L25.8608 15.5915C25.9341 15.4449 25.9341 15.3716 25.8608 15.2251L21.7582 0.421391C21.685 0.274821 21.6117 0.12825 21.4652 0.0549641C21.3187 -0.0183214 21.0989 -0.0183214 20.9524 0.0549641C20.5861 0.201535 11.5018 3.64595 7.61905 16.1045C6.59341 19.329 6.30037 22.2605 6.30037 24.8987C6.30037 25.485 6.30037 25.998 6.37363 26.511V52.8205H4.7619C4.3956 52.8205 4.10256 53.1136 4.10256 53.4801V72.6076H0.659341C0.29304 72.6076 0 72.9007 0 73.2671C0 73.6336 0.29304 73.9267 0.659341 73.9267H4.54212C4.61538 74 4.68864 74 4.83517 74H9.23077C9.30403 74 9.45055 74 9.52381 73.9267H79.3407C79.707 73.9267 80 73.6336 80 73.2671C79.9267 72.9007 79.6337 72.6076 79.2674 72.6076ZM67.033 29.1493C70.3297 29.1493 72.967 31.7876 72.967 35.0854C72.967 38.3833 70.3297 41.0215 67.033 41.0215C63.7363 41.0215 61.0989 38.3833 61.0989 35.0854C61.0989 31.7876 63.8095 29.1493 67.033 29.1493ZM62.4908 29.5157C60.8791 30.8349 59.7802 32.8869 59.7802 35.1587C59.7802 35.5251 59.7802 35.8183 59.8535 36.1847L42.1245 30.615C42.1245 30.5417 42.1245 30.4684 42.1245 30.3951C42.1245 28.563 40.6593 27.0973 38.8278 27.0973C37.6557 27.0973 36.5568 27.7569 36.044 28.7096L22.9304 24.6056L25.0549 17.79L62.4908 29.5157ZM37.8755 50.9884L30.9158 55.2389L33.1136 47.9837L37.8755 50.9884ZM33.4066 46.8111L33.8462 45.3454H44.2491L44.6886 46.8111L39.0476 50.3288L33.4066 46.8111ZM39.0476 51.7945L47.2527 56.8512L39.0476 62.4942L30.8425 56.8512L39.0476 51.7945ZM40.293 50.9884L45.1282 48.0569L47.326 55.3122L40.293 50.9884ZM29.8169 44.0995C29.5238 44.0995 29.304 43.8797 29.304 43.5865C29.304 43.2934 29.5238 43.0735 29.8169 43.0735H48.7179C49.011 43.0735 49.2308 43.2934 49.2308 43.5865C49.2308 43.8797 49.011 44.0995 48.7179 44.0995H29.8169ZM34.9451 41.7544L36.7766 35.745H41.4652L43.2234 41.7544H34.9451ZM44.6154 41.7544L42.4176 34.4258H35.8242L33.6264 41.7544H31.7949L34.4322 32.8869H36.8498C37.3626 33.3999 38.0952 33.693 38.9011 33.693C39.707 33.693 40.4396 33.3999 41.0256 32.8869H43.8095L46.4469 41.7544H44.6154ZM36.9231 30.3951C36.9231 29.2959 37.8022 28.4164 38.9011 28.4164C40 28.4164 40.8791 29.2959 40.8791 30.3951C40.8791 31.4944 40 32.3739 38.9011 32.3739C37.8022 32.4471 36.9231 31.4944 36.9231 30.3951ZM8.86447 16.4709C12.0147 6.50409 18.6813 2.54667 20.7326 1.52067L24.5421 15.3716L21.1722 26.2179L10.1099 35.5251C9.45055 34.3526 8.05861 31.3479 7.61905 27.0973V25.8514C7.61905 25.7049 7.54579 25.6316 7.54579 25.5583C7.54579 25.2652 7.54579 25.0453 7.54579 24.7522C7.54579 22.2605 7.91209 19.4756 8.86447 16.4709ZM8.57143 72.6076H5.42125V54.0664H8.57143V72.6076ZM21.3187 72.6076H9.81685V53.4801C9.81685 53.1136 9.52381 52.8205 9.15751 52.8205H7.61905V33.0334C8.42491 35.3786 9.30403 36.6977 9.37729 36.8443C9.45055 36.9908 9.67033 37.0641 9.81685 37.1374H9.89011C10.0366 37.1374 10.1832 37.0641 10.3297 36.9908L22.1245 27.1706C22.1978 27.0973 22.2711 26.9507 22.3443 26.8774L22.6374 25.8514L35.6777 29.9554C35.6777 30.102 35.6044 30.2486 35.6044 30.4684C35.6044 30.9081 35.6777 31.3479 35.8242 31.7143H34.359C33.7729 31.7143 33.2601 32.0807 33.1136 32.667L30.4029 41.7544H29.8169C28.7912 41.7544 27.9853 42.5605 27.9853 43.5132C27.9853 44.3194 28.5714 44.979 29.3773 45.1988L21.3919 72.1679C21.3187 72.3144 21.3187 72.461 21.3187 72.6076ZM22.6374 72.5343L30.696 45.3454H32.5275L29.2308 56.4115C29.0843 56.5581 29.011 56.7046 29.011 56.8512C29.011 56.9245 29.011 56.9245 29.011 56.9978L24.3956 72.5343H22.6374ZM30.1099 57.8772L37.9487 63.227L26.0806 71.2884L30.1099 57.8772ZM26.4469 72.6076L39.0476 64.0332L51.6484 72.6076H26.4469ZM40.2198 63.227L48.0586 57.8772L52.0879 71.2884L40.2198 63.227ZM53.7729 72.5343L49.0843 56.9245V56.8512C49.0843 56.7046 49.011 56.5581 48.9377 56.4848L45.641 45.4187H47.4725L55.5311 72.6076L53.7729 72.5343ZM63.4432 53.4801V72.6076H56.8498C56.8498 72.461 56.8498 72.3144 56.7766 72.1679L48.7912 45.2721C49.7436 45.1988 50.5494 44.466 50.5494 43.5132C50.5494 42.5605 49.7436 41.7544 48.7179 41.7544H47.7656L45.1282 32.8136L60.293 37.5771C61.2454 40.1421 63.5897 42.0475 66.4469 42.2674V52.7472H64.1026C63.7363 52.8205 63.4432 53.1136 63.4432 53.4801ZM70.1099 72.6076H64.7619V54.1396H70.1099V72.6076ZM10.1099 30.4684C10.3297 30.9081 10.4762 31.3479 10.6227 31.7876C10.696 32.0074 10.8425 32.154 11.0623 32.2273C11.1355 32.2273 11.2088 32.2273 11.2088 32.2273C11.3553 32.2273 11.5018 32.154 11.6484 32.0807L19.2674 25.1186C19.3407 25.0453 19.4139 24.972 19.4139 24.8255L21.6117 17.79L22.2711 15.5915C22.2711 15.5182 22.3443 15.3716 22.2711 15.2251L20 5.18495C19.9267 4.96509 19.7802 4.81852 19.5604 4.74523C19.3407 4.67195 19.1209 4.74523 18.9744 4.81852C18.6081 5.11166 18.2418 5.33152 17.8022 5.62466C15.7509 6.9438 13.4799 8.40951 10.7692 17.0572C9.37729 21.381 9.15751 24.2392 9.15751 26.2179C9.30403 28.1966 9.67033 29.3691 10.1099 30.4684ZM18.5348 6.72394C18.6813 6.65066 18.8278 6.50409 18.9744 6.4308L20.8059 14.2723L14.0659 12.2204C15.7509 8.55608 17.2161 7.60337 18.5348 6.72394ZM13.5531 13.3196L21.0256 15.5915L20.5861 16.8373L13.0403 14.4922C13.2601 14.0525 13.4066 13.6861 13.5531 13.3196ZM12.0147 17.4236C12.2344 16.764 12.381 16.1778 12.6007 15.6648L20.1465 18.0099L19.0476 21.6009L11.5018 19.2558C11.6484 18.6695 11.8681 18.0832 12.0147 17.4236ZM11.2088 20.5016L18.7546 22.8467L18.315 24.0193L10.9158 21.6742C10.989 21.3078 11.0623 20.868 11.2088 20.5016ZM10.696 22.92L17.4359 25.0453L11.5751 30.4684C11.5018 30.3219 11.4286 30.1753 11.3553 29.9554C10.6227 28.4164 9.96337 26.8774 10.696 22.92ZM67.033 39.4093C69.3773 39.4093 71.3553 37.5038 71.3553 35.0854C71.3553 32.667 69.4506 30.7616 67.033 30.7616C64.6886 30.7616 62.7106 32.667 62.7106 35.0854C62.7106 37.5038 64.6886 39.4093 67.033 39.4093ZM67.033 32.0807C68.7179 32.0807 70.0366 33.4731 70.0366 35.0854C70.0366 36.771 68.6447 38.0901 67.033 38.0901C65.348 38.0901 64.0293 36.6977 64.0293 35.0854C64.0293 33.4731 65.4212 32.0807 67.033 32.0807Z" fill="#CB9E5A"/>
</svg>
