<svg width="40" height="44" viewBox="0 0 40 44" fill="none" xmlns="http://www.w3.org/2000/svg">
<path d="M31.4364 0H2.83636V16.2644H0V31.3439H2.89091V44H40V8.45532L31.4364 0ZM31.7636 1.83109L38.2545 8.2399H31.7636V1.83109ZM38.9091 42.869H3.92727V31.3439H38.8545V42.869H38.9091ZM7.16364 28.9204V19.2264H10.8727C11.5273 19.2264 12.0182 19.2803 12.3455 19.3341C12.8364 19.388 13.2182 19.5496 13.5455 19.765C13.8727 19.9804 14.1455 20.3035 14.3091 20.6805C14.5273 21.0575 14.5818 21.5422 14.5818 22.0269C14.5818 22.8348 14.3091 23.5349 13.7636 24.1273C13.2182 24.7197 12.2909 24.989 10.8727 24.989H8.36364V28.9204H7.16364ZM16.9273 28.9204V19.2264H20.3091C21.0727 19.2264 21.6727 19.2803 22.0545 19.388C22.6 19.4957 23.0909 19.765 23.4727 20.0881C23.9636 20.519 24.4 21.0575 24.6182 21.7576C24.8364 22.4578 25 23.2117 25 24.0734C25 24.8274 24.8909 25.4737 24.7273 26.0122C24.5636 26.6046 24.3455 27.0355 24.0727 27.4125C23.8 27.7895 23.5273 28.0588 23.2 28.2742C22.8727 28.4896 22.4909 28.6512 22.0545 28.7589C21.6182 28.8666 21.0727 28.9204 20.4727 28.9204H16.9273ZM33.4 23.3733V24.5043H28.8182V28.9204H27.5091V19.2264H34.1091V20.3574H28.7636V23.3733H33.4ZM38.9091 16.2644H3.92727V1.07711H30.6727V9.31701H38.9091V16.2644Z" fill="#B50F07"/>
</svg>
