<svg width="86" height="112" viewBox="0 0 86 112" fill="none" xmlns="http://www.w3.org/2000/svg">
<path d="M62.8071 16.9929C62.4166 16.6024 61.7834 16.6024 61.3929 16.9929C61.0024 17.3834 61.0024 18.0166 61.3929 18.4071L67.7929 24.8071C68.1834 25.1976 68.8166 25.1976 69.2071 24.8071C69.5976 24.4166 69.5976 23.7834 69.2071 23.3929L62.8071 16.9929Z" fill="#35B6FF"/>
<path fill-rule="evenodd" clip-rule="evenodd" d="M70.5127 5.39326L69.9071 4.7929L69.9053 4.79107C68.9148 3.80253 67.3833 3.80298 66.3934 4.79243L34.294 36.7918L34.2929 36.7929C33.3024 37.7834 33.3024 39.3166 34.2929 40.3071L35.0858 41.1L32.1929 43.9929C31.1024 45.0834 31.1024 46.9166 32.1929 48.0071L38.1929 54.0071C39.2834 55.0976 41.1166 55.0976 42.2071 54.0071L45.1 51.1142L45.8929 51.9071C46.8834 52.8976 48.4166 52.8976 49.4071 51.9071L65.8 35.5142L68.4929 38.2071C69.9578 39.672 72.3061 39.7283 73.7226 38.1916L74.3 37.6142C84.3459 47.6693 82.3755 65.2103 68.9929 78.5929C62.781 84.8048 54.7663 88.095 46.655 88.4649C46.5447 88.423 46.425 88.4 46.3 88.4C46.1508 88.4 46.0092 88.4327 45.8821 88.4913C36.9956 88.6932 28.0582 85.394 21.3097 78.5955L18.9142 76.2L26.1367 68.9775L31.1948 74.009C31.5863 74.3985 32.2195 74.3968 32.609 74.0052C32.9985 73.6137 32.9968 72.9805 32.6052 72.591L13.6052 53.691C13.2137 53.3015 12.5805 53.3032 12.191 53.6948C11.8015 54.0863 11.8032 54.7195 12.1948 55.109L17.2992 60.1866L7.79289 69.6929C6.20237 71.2834 6.20237 73.9166 7.79289 75.5071L10.7929 78.5071C12.3834 80.0976 15.0166 80.0976 16.6071 78.5071L17.5 77.6142L19.8903 80.0045L19.8915 80.0057C26.8851 87.0505 36.094 90.5478 45.3 90.4995V97.2H38.4C34.0255 97.2 30.3204 100.232 29.4222 104.49L27.9583 111.2H71.1198L69.7806 104.504L69.7785 104.494C68.8817 100.234 65.1757 97.2 60.8 97.2H52.5V89.7305C59.0565 88.349 65.3065 85.1077 70.4071 80.0071C84.2184 66.1958 86.8521 47.347 75.7142 36.2L76.3071 35.6071C77.772 34.1422 77.8283 31.7939 76.2916 30.3774L73.6142 27.7L81.5071 19.8071C82.4976 18.8166 82.4976 17.2834 81.5071 16.2929L80.9003 15.6913L84.3236 13.5906L84.4071 13.5071C85.4976 12.4166 85.4976 10.5834 84.4071 9.4929L76.7071 1.7929C75.6077 0.693518 73.7373 0.695952 72.6474 1.9415L72.5918 2.00503L70.5127 5.39326ZM74.1994 3.20924L71.9717 6.83965L75.7017 10.5376L79.4453 14.2376L83.0544 12.0229C83.3008 11.7038 83.2803 11.1945 82.9929 10.9071L75.2929 3.20711C75.0069 2.92114 74.5138 2.905 74.1994 3.20924ZM50.5 90.0929C49.4379 90.2543 48.37 90.3678 47.3 90.4332V97.2H50.5V90.0929ZM38.4 99.2C34.9757 99.2 32.0817 101.566 31.3785 104.906L31.377 104.913L30.4417 109.2H68.6802L67.8214 104.906L67.8205 104.901C67.1156 101.564 64.2227 99.2 60.8 99.2H38.4ZM68.496 6.21017L69.4382 7.14428L69.4326 7.15338L74.2976 11.9618L80.0929 17.7071L80.0941 17.7084C80.3024 17.9177 80.3019 18.1838 80.0929 18.3929L47.9929 50.4929C47.7834 50.7024 47.5166 50.7024 47.3071 50.4929L35.7071 38.8929C35.4978 38.6836 35.4976 38.417 35.7066 38.2076L67.8071 6.20711C68.0166 5.99764 68.2834 5.99764 68.4929 6.20711L68.496 6.21017ZM72.2 29.1142L67.2142 34.1L69.9071 36.7929C70.6362 37.522 71.6747 37.4712 72.2601 36.8273L72.2761 36.8097L74.8929 34.1929C75.622 33.4638 75.5712 32.4253 74.9273 31.8399L74.9097 31.8239L72.2 29.1142ZM43.6858 49.7L36.5 42.5142L33.6071 45.4071C33.2976 45.7166 33.2976 46.2834 33.6071 46.5929L39.6071 52.5929C39.9166 52.9024 40.4834 52.9024 40.7929 52.5929L43.6858 49.7ZM24.7187 67.567L17.1556 75.1302C16.9861 75.1727 16.8255 75.2603 16.6929 75.3929C16.5603 75.5255 16.4727 75.6861 16.4302 75.8556L15.1929 77.0929C14.3834 77.9024 13.0166 77.9024 12.2071 77.0929L9.20711 74.0929C8.39763 73.2834 8.39763 71.9166 9.20711 71.1071L18.7172 61.5971L24.7187 67.567Z" fill="#35B6FF"/>
<path d="M1.70711 77.1929C1.31658 76.8024 0.683418 76.8024 0.292893 77.1929C-0.097631 77.5834 -0.0976311 78.2166 0.292893 78.6071L7.69289 86.0071C8.08342 86.3976 8.71658 86.3976 9.10711 86.0071C9.49763 85.6166 9.49763 84.9834 9.10711 84.5929L1.70711 77.1929Z" fill="#35B6FF"/>
</svg>
