<svg width="102" height="94" viewBox="0 0 102 94" fill="none" xmlns="http://www.w3.org/2000/svg">
<path d="M101.9 52C101.4 34.2 88.3 21.3 87.8 20.8C87.5 20.5 87 20.3 86.6 20.3C86.3 20.3 86.1 20.4 85.9 20.5C85.2 20.8 84.8 21.5 84.9 22.2C84.9 22.5 85.1 25.6 83.8 29.6C78.1 12.4 61.9 0 42.9 0C19.2 0 0 19.2 0 42.9C0 65.9 18.3 84.8 41.1 85.8C42.1 90 43.6 92.7 43.7 92.9C44 93.5 44.6 93.8 45.2 93.8C45.9 93.8 46.6 93.8 47.4 93.8C48.3 93.8 49.4 93.8 50.4 93.8C58.9 93.8 81.5 93.8 93.9 75.7C99.3 67.9 102.1 59.7 101.9 52ZM82.5 32.6C80.9 35.8 78.1 39.3 73.5 42H65.7C65.6 33.9 64.3 26.2 61.9 19.6C66 18.5 69.8 17.1 73.1 15.3C77.5 20.2 80.8 26.1 82.5 32.6ZM70.2 43.8C68.5 44.7 67 45.4 65.6 46.1C65.6 45.3 65.7 44.6 65.7 43.8H70.2ZM72 14.2C68.9 15.8 65.3 17.2 61.4 18.2C60.7 16.4 60 14.8 59.2 13.2C56.8 8.5 53.9 5 50.7 2.8C58.9 4.3 66.3 8.4 72 14.2ZM43.7 2C44.2 2 44.6 2 45.1 2C51.1 3.2 56.5 9.4 59.9 18.4C54.8 19.6 49.3 20.2 43.7 20.3V2ZM43.7 22C49.5 21.9 55.3 21.3 60.5 20C62.7 26.3 64 33.9 64.1 42H43.7V22ZM43.7 43.8H64.1C64.1 44.9 64 45.9 64 46.9C63.8 47 63.7 47.1 63.5 47.1C55.9 50.8 52.1 52.7 45.8 60.6C45.2 61.4 44.6 62.2 44.1 63C44 63 43.8 63 43.7 63V43.8ZM42.1 2V20.4C36.4 20.3 30.8 19.7 25.6 18.4C29.2 9.4 34.6 3.2 40.6 2C41.2 2 41.6 2 42.1 2ZM21.3 42C21.4 33.8 22.8 26.3 25.1 19.9C30.4 21.2 36.2 21.9 42.1 21.9V41.9H21.3V42ZM42.1 43.8V63C36.1 63.1 30.2 63.8 24.8 65.1C22.7 58.9 21.4 51.6 21.3 43.8H42.1ZM35.2 2.7C32 4.9 29 8.4 26.6 13.1C25.8 14.7 25.1 16.3 24.4 18.1C20.5 17.1 16.9 15.7 13.8 14.1C19.5 8.4 26.9 4.3 35.2 2.7ZM12.7 15.4C16 17.1 19.7 18.6 23.9 19.7C21.5 26.2 20 33.9 19.9 42H2C2.3 31.8 6.2 22.4 12.7 15.4ZM2 43.8H19.9C20 51.6 21.4 59 23.6 65.5C19.4 66.6 15.5 68.1 12.2 70C6 62.9 2.2 53.8 2 43.8ZM13.3 71.1C16.5 69.4 20.1 68 24.1 66.9C24.9 68.9 25.7 70.9 26.6 72.6C29 77.3 31.9 80.8 35.1 83C26.6 81.4 19.1 77.1 13.3 71.1ZM40 78.7C40.1 80.5 40.3 82.2 40.6 83.7C34.4 82.4 28.9 76 25.3 66.6C30.5 65.3 36.2 64.6 42 64.6V66.7C40.6 70.3 39.9 74.3 40 78.7ZM92.5 74.7C81.4 90.9 62.2 92 50.4 92C48.9 92 47.6 92 46.4 92C47.5 88 49.1 84.9 51.5 82C54.6 83.5 57.9 84 60.9 84C66 84 70.1 82.6 70.4 82.5C70.9 82.3 71.1 81.8 70.9 81.4C70.7 80.9 70.2 80.7 69.8 80.9C69.7 80.9 60.4 84.1 52.7 80.7C55.2 78.2 58.4 75.8 62.7 73.1C65.1 74.3 68.5 74.7 71.7 74.7C76.9 74.7 81.8 73.7 82.2 73.6C82.7 73.5 83 73 82.9 72.6C82.8 72.1 82.3 71.8 81.9 71.9C81.8 71.9 70.8 74.2 64.7 72C65.7 71.4 66.6 70.8 67.7 70.2C70.6 68.5 73 66.9 75.2 65.3C76.8 65.7 78.5 65.9 80.1 65.9C86 65.9 91.2 63.6 91.5 63.5C91.9 63.3 92.1 62.8 91.9 62.3C91.7 61.9 91.2 61.7 90.7 61.9C90.6 61.9 83.5 65 76.9 63.9C88.7 54.7 89 47.4 89 47C89 46.5 88.6 46.1 88.1 46.1C87.6 46.1 87.2 46.5 87.2 46.9C87.2 47 86.8 54.2 74.7 63.4C73.6 63 73 62.5 72.8 61.8C72.4 60 74.6 57.2 75.6 56.3C75.9 56 75.9 55.4 75.6 55.1C75.3 54.8 74.7 54.8 74.4 55.1C74 55.5 70.4 59.2 71.2 62.3C71.4 63.3 72.1 64.1 73.2 64.7C71.3 66 69.2 67.4 66.8 68.8C65.4 69.6 64.1 70.4 62.9 71.1C61.2 69.2 62.3 63.9 62.9 62.1C63 61.6 62.8 61.1 62.3 61C61.8 60.9 61.3 61.1 61.2 61.6C60.9 62.4 58.9 69 61.3 72.1C57.1 74.8 53.8 77.2 51.2 79.9C48.6 77.5 50.5 70.8 51.6 68.3C51.8 67.9 51.6 67.3 51.1 67.2C50.7 67 50.1 67.2 50 67.7C49.8 68.1 45.9 77.6 50.1 81.3C47.7 84.2 46 87.4 44.9 91.5C44.5 90.5 43.6 88.6 43 86C42.7 84.8 42.4 83.4 42.2 82C42 80.9 41.9 79.8 41.9 78.6C41.7 73.4 42.7 67.4 47.3 61.7C55.3 51.7 58.7 52 73.3 44.2C87.9 36.4 86.7 22.1 86.7 22.1C86.7 22.1 99.9 34.8 100.3 52.1C100.3 59.1 98 66.8 92.5 74.7Z" fill="#35B6FF"/>
</svg>
