<svg width="76" height="111" viewBox="0 0 76 111" fill="none" xmlns="http://www.w3.org/2000/svg">
<path d="M48.5 36.7C48.7 36.5 48.8 36.3 48.8 36V9.6C50.5 9.2 51.7 7.7 51.7 5.9V3.9C51.7 1.8 50 0 47.8 0H27.8C25.7 0 23.9 1.7 23.9 3.9V5.9C23.9 7.7 25.2 9.3 26.9 9.7V36.2C26.9 36.4 27 36.6 27.1 36.7C11.5 41.3 0 55.8 0 72.9C0 93.7 16.9 110.7 37.8 110.7C58.7 110.7 75.6 93.8 75.6 72.9C75.5 55.8 64.1 41.3 48.5 36.7ZM25.6 5.9V3.9C25.6 2.7 26.6 1.8 27.7 1.8H47.7C48.9 1.8 49.8 2.8 49.8 3.9V5.9C49.8 7.1 48.8 8 47.7 8H27.7C26.6 8 25.6 7 25.6 5.9ZM46.8 36.2C43.9 35.5 40.9 35.1 37.7 35.1C34.5 35.1 31.5 35.5 28.6 36.2V36.1V9.8H46.7V36C46.8 36 46.8 36.1 46.8 36.2ZM37.8 108.9C17.9 108.9 1.8 92.7 1.8 72.9C1.8 53 18 36.9 37.8 36.9C57.6 36.9 73.8 53.1 73.8 72.9C73.8 92.7 57.6 108.9 37.8 108.9ZM9 64.1C9.1 64.1 9.2 64.1 9.3 64.1C9.7 64.1 10 63.9 10.1 63.5C13.1 54.2 20.8 46.8 30.3 44.3C30.8 44.2 31 43.7 30.9 43.2C30.8 42.7 30.3 42.5 29.8 42.6C19.8 45.3 11.6 53.1 8.4 63C8.3 63.5 8.5 64 9 64.1ZM33.8 13.5C33.3 13.5 32.9 13.9 32.9 14.4V24.9C32.9 25.4 33.3 25.8 33.8 25.8C34.3 25.8 34.7 25.4 34.7 24.9V14.4C34.6 13.9 34.3 13.5 33.8 13.5ZM67.8 77.4C67.6 77.2 67.4 77.1 67.1 77.1H39.3C39.1 77.1 38.9 77.2 38.7 77.3C38.2 72.1 33.7 68 28.4 68C23.1 68 18.8 72 18.1 77H8.5C8.2 77 8 77.1 7.8 77.3C7.6 77.5 7.6 77.8 7.6 78C10.2 92.6 22.9 103.6 37.8 103.6C52.7 103.6 65.4 92.6 68 78C68 77.8 67.9 77.6 67.8 77.4ZM28.4 69.8C33.2 69.8 37 73.7 37 78.4C37 83.2 33.1 87 28.4 87C23.6 87 19.8 83.1 19.8 78.4C19.8 73.6 23.6 69.8 28.4 69.8ZM37.8 101.9C24.1 101.9 12.4 92 9.5 78.8H18C18.2 84.3 22.8 88.8 28.4 88.8C34 88.8 38.6 84.3 38.8 78.6C38.9 78.7 39.1 78.8 39.3 78.8H66C63.2 92 51.4 101.9 37.8 101.9ZM25.9 83.9H27.7V82.8H30.7V81H27.7V79.7C31.1 79.7 32.7 78.4 32.7 75.8C32.7 74 31.8 71.9 27.6 71.9V72H25.9V81H24.8V82.8H25.9V83.9ZM27.6 73.8C30.8 73.8 30.9 75.2 30.9 75.9C30.9 76.8 30.9 78 27.6 78V73.8ZM47.4 70.8C53.1 70.8 57.8 66.1 57.8 60.4C57.8 54.7 53.1 50 47.4 50C41.7 50 37 54.7 37 60.4C37 66.1 41.7 70.8 47.4 70.8ZM47.4 51.8C52.2 51.8 56 55.7 56 60.4C56 65.2 52.1 69 47.4 69C42.6 69 38.8 65.1 38.8 60.4C38.8 55.6 42.6 51.8 47.4 51.8ZM44.9 65.9H46.7V64.8H49.7V63H46.7V61.7C50.1 61.7 51.7 60.4 51.7 57.8C51.7 56 50.8 53.9 46.6 53.9V54H44.9V63H43.8V64.8H44.9V65.9ZM46.6 55.8C49.8 55.8 49.9 57.2 49.9 57.9C49.9 58.8 49.9 60 46.6 60V55.8Z" fill="#35B6FF"/>
</svg>
