<svg width="12" height="17" viewBox="0 0 12 17" fill="none" xmlns="http://www.w3.org/2000/svg">
<path d="M6.00092 0C2.68657 0 0 2.80936 0 6.2752C0 7.74263 0.474534 8.87603 1.56855 10.5896C2.66164 12.3033 6.00092 17 6.00092 17C6.00092 17 9.34021 12.3042 10.4314 10.5896C11.5264 8.87603 12 7.74263 12 6.2752C12 2.80936 9.31343 0 6.00092 0ZM6.00092 8.64529C4.74812 8.64529 3.73257 7.5843 3.73257 6.27327C3.73257 4.96417 4.74812 3.90124 6.00092 3.90124C7.25373 3.90124 8.26927 4.96417 8.26927 6.27327C8.26927 7.5843 7.25373 8.64529 6.00092 8.64529Z" fill="#01539F"/>
</svg>
