<svg width="34" height="35" viewBox="0 0 34 35" fill="none" xmlns="http://www.w3.org/2000/svg">
<path d="M31.6448 18.6424C30.5323 17.9632 29.1905 17.7433 27.913 18.0309C26.6355 18.3186 25.5262 19.0902 24.8278 20.1771C24.436 20.7908 24.1914 21.4835 24.1123 22.2032L22.4672 22.0652C22.5134 21.2842 22.3862 20.5027 22.0944 19.7745C21.8026 19.0464 21.3532 18.3889 20.777 17.8474L24.3883 14.0768C24.6073 14.26 24.8475 14.4175 25.1038 14.5461C25.536 14.7441 26.007 14.8478 26.4842 14.8497C27.173 14.8524 27.8447 14.6399 28.4019 14.243C28.959 13.8461 29.3726 13.2855 29.5825 12.6427C29.7924 11.9998 29.7877 11.3081 29.5691 10.668C29.3505 10.028 28.9294 9.47281 28.3669 9.08321C27.8045 8.69361 27.1299 8.48984 26.4412 8.50147C25.7525 8.51311 25.0855 8.73956 24.537 9.14794C23.9886 9.55631 23.5873 10.1254 23.3913 10.7724C23.1954 11.4195 23.2151 12.111 23.4475 12.7463C23.6034 13.1751 23.8534 13.5652 24.1799 13.8891L20.5742 17.6597C19.856 17.035 18.9867 16.6006 18.049 16.3977C17.1113 16.1948 16.1362 16.2301 15.2163 16.5004C15.0698 16.5445 14.929 16.5942 14.7881 16.6494L11.0754 9.12481C11.4873 8.91091 11.8666 8.64145 12.2022 8.32432C13.0244 7.54629 13.5458 6.513 13.6778 5.40047C13.8097 4.28794 13.544 3.165 12.9257 2.22295C12.3075 1.2809 11.3751 0.578002 10.2874 0.23401C9.19963 -0.109982 8.02381 -0.0737934 6.96023 0.336413C5.89665 0.746619 5.01111 1.50547 4.45445 2.48368C3.8978 3.4619 3.70447 4.59896 3.90741 5.70118C4.11034 6.8034 4.69698 7.80259 5.56739 8.52852C6.4378 9.25446 7.53814 9.66224 8.68095 9.68239H8.77109C9.47745 9.68249 10.1753 9.53178 10.8162 9.24074L14.5797 16.7598C13.5689 17.2038 12.7171 17.9345 12.1345 18.8577L6.14568 15.7275C6.27092 15.4752 6.36183 15.2079 6.41611 14.9325C6.54932 14.2109 6.42299 13.4663 6.05866 12.8258C5.69433 12.1852 5.11456 11.6883 4.41817 11.4198C3.72179 11.1512 2.9519 11.1276 2.23977 11.3531C1.52763 11.5785 0.917327 12.039 0.512896 12.656C0.108466 13.273 -0.0650539 14.0084 0.0219179 14.7367C0.10889 15.4651 0.450969 16.1413 0.98984 16.6502C1.52871 17.1591 2.23101 17.469 2.97702 17.5273C3.72303 17.5855 4.46657 17.3884 5.08087 16.9696C5.46112 16.7072 5.77994 16.3685 6.0161 15.9759L11.9993 19.0951C11.3982 20.141 11.1668 21.3522 11.341 22.5403C11.5153 23.7285 12.0854 24.8269 12.9627 25.6646L9.35139 29.4407C9.13525 29.2538 8.89463 29.096 8.63588 28.9715C8.19738 28.7663 7.71734 28.6607 7.23144 28.6623C6.74554 28.664 6.26627 28.7729 5.82924 28.981C5.39221 29.1892 5.00866 29.4911 4.70708 29.8644C4.40551 30.2377 4.19366 30.6729 4.08729 31.1374C3.98092 31.602 3.98275 32.0841 4.09266 32.5479C4.20257 33.0117 4.41772 33.4453 4.72213 33.8164C5.02654 34.1875 5.41238 34.4866 5.85098 34.6915C6.28958 34.8964 6.76967 35.0019 7.25557 35C7.62581 34.9987 7.99327 34.9371 8.34291 34.8178C8.85303 34.6415 9.30943 34.3417 9.66976 33.9464C10.0301 33.5511 10.2827 33.0729 10.404 32.5564C10.5254 32.0399 10.5117 31.5017 10.3641 30.9917C10.2165 30.4818 9.93988 30.0166 9.55984 29.6394L13.1656 25.8689C14.1945 26.7662 15.5234 27.2631 16.9009 27.2656C17.4507 27.2656 17.9975 27.1856 18.5234 27.0282C18.9158 26.9088 19.2936 26.7478 19.6502 26.5479C20.6631 25.9964 21.4731 25.1465 21.9657 24.1188C22.2328 23.5617 22.4023 22.9645 22.4672 22.3522L24.1066 22.4902C24.0684 23.1478 24.1672 23.806 24.3972 24.4248C24.6272 25.0437 24.9834 25.6101 25.4442 26.0895C25.905 26.5689 26.4607 26.9513 27.0773 27.2133C27.694 27.4753 28.3586 27.6114 29.0307 27.6134C29.41 27.6129 29.788 27.5703 30.1575 27.4864C31.1115 27.2724 31.9793 26.7858 32.651 26.0883C33.3227 25.3908 33.7682 24.5138 33.931 23.5681C34.0939 22.6225 33.9668 21.6507 33.5659 20.7759C33.1649 19.901 32.5081 19.1624 31.6786 18.6534L31.6448 18.6424ZM24.6362 10.7976C24.7563 10.557 24.9236 10.342 25.1285 10.1649C25.3335 9.98772 25.5721 9.85191 25.8306 9.7652C26.0562 9.68439 26.2946 9.64328 26.5349 9.64375C26.9194 9.64404 27.2964 9.7477 27.625 9.94345C27.9536 10.1392 28.221 10.4195 28.3982 10.7539C28.5754 11.0883 28.6556 11.4639 28.6301 11.8399C28.6045 12.2158 28.4741 12.5777 28.2532 12.8861C28.0323 13.1945 27.7292 13.4375 27.3771 13.5888C27.0249 13.7401 26.6372 13.7938 26.256 13.7441C25.8748 13.6944 25.5149 13.5432 25.2154 13.3069C24.9159 13.0706 24.6883 12.7583 24.5574 12.4041C24.4585 12.1451 24.4146 11.8691 24.4281 11.5929C24.4417 11.3167 24.5125 11.0461 24.6362 10.7976ZM8.70349 8.58931C7.69132 8.56756 6.72909 8.15411 6.02707 7.43931C5.32504 6.7245 4.9403 5.76647 4.95692 4.77456C4.97754 3.7948 5.38889 2.86192 6.10287 2.17572C6.81684 1.48952 7.77665 1.10458 8.77673 1.10334H8.84997C9.86304 1.12238 10.8269 1.53498 11.5295 2.25038C12.2321 2.96579 12.616 3.92539 12.5965 4.91809C12.5771 5.91079 12.156 6.85528 11.4259 7.54376C10.6959 8.23225 9.71656 8.60834 8.70349 8.58931ZM5.31186 14.7338C5.21324 15.2718 4.90053 15.7495 4.44251 16.0616C3.98448 16.3738 3.41868 16.4949 2.86955 16.3982C2.32043 16.3016 1.83298 15.9952 1.51442 15.5464C1.19587 15.0975 1.07231 14.5431 1.17093 14.005C1.25794 13.5308 1.51195 13.1014 1.88872 12.7917C2.26549 12.482 2.74117 12.3117 3.23294 12.3102C3.35952 12.3103 3.48584 12.3213 3.61042 12.3433C3.88309 12.3894 4.14363 12.4883 4.37678 12.6343C4.60993 12.7803 4.811 12.9704 4.96819 13.1935C5.12592 13.4155 5.23746 13.6658 5.29642 13.9301C5.35539 14.1944 5.36064 14.4675 5.31186 14.7338ZM7.98234 33.7744C7.47232 33.9099 6.92893 33.8521 6.46044 33.6126C5.99194 33.3731 5.63272 32.9694 5.45436 32.482C5.276 31.9946 5.29159 31.4592 5.49802 30.9825C5.70444 30.5059 6.08656 30.1229 6.56823 29.91C6.82828 29.8188 7.10411 29.7788 7.37996 29.7921C7.65581 29.8055 7.92626 29.8721 8.17586 29.9879C8.42545 30.1038 8.64928 30.2668 8.83455 30.4675C9.01982 30.6682 9.1629 30.9027 9.25561 31.1576C9.43828 31.6702 9.40699 32.2327 9.16854 32.7228C8.93008 33.2128 8.50376 33.5908 7.98234 33.7744ZM21.3573 22.1148C21.3128 22.6431 21.1715 23.1593 20.9404 23.6385C20.5504 24.457 19.908 25.1348 19.1037 25.5763C18.813 25.7377 18.505 25.8673 18.1854 25.9627C17.3237 26.2007 16.4092 26.1818 15.5584 25.9085C14.7077 25.6352 13.9593 25.1198 13.4087 24.4281C12.8581 23.7363 12.5302 22.8995 12.4668 22.0245C12.4034 21.1494 12.6075 20.2756 13.0529 19.5146C13.5384 18.6986 14.2849 18.0622 15.1769 17.7039C15.3177 17.6487 15.4586 17.599 15.605 17.5548C16.7414 17.2254 17.9643 17.3477 19.0093 17.8953C20.0542 18.4429 20.837 19.3718 21.1883 20.4807C21.3531 21.0094 21.4105 21.5645 21.3573 22.1148ZM32.2758 24.7371C32.0102 25.154 31.6633 25.5155 31.2549 25.8009C30.8466 26.0862 30.3848 26.2898 29.896 26.4001C29.4073 26.5103 28.9011 26.525 28.4065 26.4434C27.9119 26.3617 27.4386 26.1852 27.0137 25.9241C26.373 25.5316 25.8655 24.9617 25.5554 24.2865C25.2452 23.6113 25.1464 22.8611 25.2715 22.1309C25.3965 21.4007 25.7398 20.7232 26.2578 20.1842C26.7758 19.6451 27.4454 19.2688 28.1817 19.1027C28.9181 18.9366 29.6882 18.9882 30.3946 19.2511C31.101 19.5139 31.712 19.9761 32.1503 20.5793C32.5886 21.1825 32.8344 21.8995 32.8568 22.6396C32.8791 23.3797 32.6769 24.1096 32.2758 24.7371Z" fill="white"/>
</svg>
