<svg width="49" height="74" viewBox="0 0 49 74" fill="none" xmlns="http://www.w3.org/2000/svg">
<path d="M23.6198 25.9881C23.253 26.4286 15.4042 37.1468 15.4042 41.7718C15.4042 46.5437 19.2919 50.5079 24.1332 50.5079C28.9012 50.5079 32.8623 46.6171 32.8623 41.7718C32.8623 37.1468 25.0135 26.4286 24.6467 25.9881C24.3533 25.621 23.8398 25.621 23.6198 25.9881ZM24.1332 49.1865C20.0254 49.1865 16.7246 45.8829 16.7246 41.7718C16.7246 38.1746 22.3728 29.9524 24.1332 27.4564C25.8937 29.9524 31.5419 38.1746 31.5419 41.7718C31.5419 45.8829 28.241 49.1865 24.1332 49.1865ZM46.8728 7.92857C48.0464 7.92857 49 6.97421 49 5.7996V5.06548C49 3.89087 48.0464 2.93651 46.8728 2.93651H41.6647V2.12897C41.6647 0.954365 40.7111 0 39.5374 0H30.735C29.5614 0 28.6078 0.954365 28.6078 2.12897V2.93651H2.12725C0.953593 2.93651 0 3.89087 0 5.06548V5.7996C0 6.97421 0.953593 7.92857 2.12725 7.92857H2.2006V19.8214H2.12725C0.953593 19.8214 0 20.7758 0 21.9504V22.6845C0 23.8591 0.953593 24.8135 2.12725 24.8135H2.2006V52.123H2.12725C0.953593 52.123 0 53.0774 0 54.252V54.9861C0 56.1607 0.953593 57.1151 2.12725 57.1151H2.2006V69.0079H2.12725C0.953593 69.0079 0 69.9623 0 71.1369V71.871C0 73.0456 0.953593 74 2.12725 74H46.8728C48.0464 74 49 73.0456 49 71.871V71.1369C49 69.9623 48.0464 69.0079 46.8728 69.0079H46.7994V57.1151H46.8728C48.0464 57.1151 49 56.1607 49 54.9861V54.252C49 53.0774 48.0464 52.123 46.8728 52.123H46.7994V24.8135H46.8728C48.0464 24.8135 49 23.8591 49 22.6845V21.9504C49 20.7758 48.0464 19.8214 46.8728 19.8214H46.7994V7.92857H46.8728ZM29.9281 2.12897C29.9281 1.68849 30.2949 1.32143 30.735 1.32143H39.5374C39.9775 1.32143 40.3443 1.68849 40.3443 2.12897V2.93651H29.9281V2.12897ZM46.8728 70.3294C47.3129 70.3294 47.6796 70.6964 47.6796 71.1369V71.871C47.6796 72.3115 47.3129 72.6786 46.8728 72.6786H2.12725C1.68713 72.6786 1.32036 72.3115 1.32036 71.871V71.1369C1.32036 70.6964 1.68713 70.3294 2.12725 70.3294H46.8728ZM3.52096 69.0079V57.1151H45.479V69.0079H3.52096ZM46.8728 53.4444C47.3129 53.4444 47.6796 53.8115 47.6796 54.252V54.9861C47.6796 55.4266 47.3129 55.7937 46.8728 55.7937H2.12725C1.68713 55.7937 1.32036 55.4266 1.32036 54.9861V54.252C1.32036 53.8115 1.68713 53.4444 2.12725 53.4444H46.8728ZM3.52096 52.123V24.8135H45.479V52.123H3.52096ZM46.8728 21.1429C47.3129 21.1429 47.6796 21.5099 47.6796 21.9504V22.6845C47.6796 23.125 47.3129 23.4921 46.8728 23.4921H2.12725C1.68713 23.4921 1.32036 23.125 1.32036 22.6845V21.9504C1.32036 21.5099 1.68713 21.1429 2.12725 21.1429H46.8728ZM3.52096 19.8214V7.92857H45.479V19.8214H3.52096ZM2.12725 6.60714C1.68713 6.60714 1.32036 6.24008 1.32036 5.7996V5.06548C1.32036 4.625 1.68713 4.25794 2.12725 4.25794H46.8728C47.3129 4.25794 47.6796 4.625 47.6796 5.06548V5.7996C47.6796 6.24008 47.3129 6.60714 46.8728 6.60714H2.12725ZM23.1063 33.4028C23.1796 33.1091 23.0329 32.8155 22.7395 32.6687C22.4461 32.5218 22.1527 32.6687 21.9326 32.8889C21.4925 33.5496 17.6048 39.3492 17.6048 41.6984C17.6048 48.1587 24.0599 48.2321 24.1332 48.2321C24.5 48.2321 24.7934 47.9385 24.7934 47.5714C24.7934 47.3512 24.6467 47.131 24.5 47.0575C24.1332 46.6905 22.006 44.6349 22.006 41.9187C22.006 39.2758 23.1063 33.4762 23.1063 33.4028ZM22.4461 46.6905C20.9057 46.25 18.9251 45.002 18.9251 41.7718C18.9251 40.744 20.0988 38.4683 21.3458 36.4127C21.0524 38.248 20.759 40.5238 20.759 41.9921C20.759 43.9742 21.6392 45.5893 22.4461 46.6905Z" fill="#CB9E5A"/>
</svg>
