<svg width="41" height="44" viewBox="0 0 41 44" fill="none" xmlns="http://www.w3.org/2000/svg">
<path d="M32.3223 0H3.72074V16.2644H0.884766V31.3439H3.77528V44H40.8848V8.45532L32.3223 0ZM32.6495 1.83109L39.1395 8.2399H32.6495V1.83109ZM39.794 42.869H4.8115V31.3439H39.7395V42.869H39.794ZM11.4888 20.4113V19.2803H18.5242V20.4113L13.0158 27.1432L12.4159 27.8433H18.6878V28.9743H10.8889V27.7895L15.9064 21.5961C16.2881 21.1652 16.6153 20.7882 16.9426 20.4651H11.4888V20.4113ZM20.2694 28.9204V19.2264H21.5783V28.9204H20.2694ZM23.8689 28.9204V19.2264H27.5775C28.2319 19.2264 28.7228 19.2803 29.05 19.3341C29.5409 19.388 29.9226 19.5496 30.2499 19.765C30.5771 19.9804 30.8498 20.3035 31.0134 20.6805C31.177 21.0575 31.2861 21.5422 31.2861 22.0269C31.2861 22.8348 31.0134 23.5349 30.468 24.1273C29.9226 24.7197 28.9955 24.989 27.5775 24.989H25.0687V28.9204H23.8689ZM39.794 16.2644H4.8115V1.07711H31.5588V9.31701H39.794V16.2644Z" fill="#028667"/>
</svg>
