<svg width="38" height="56" viewBox="0 0 38 56" fill="none" xmlns="http://www.w3.org/2000/svg">
<path fill-rule="evenodd" clip-rule="evenodd" d="M0.414613 36.9638C1.86769 41.6314 7.25186 46.39 11.9614 47.0271C12.9993 47.1701 13.9983 47.1051 14.9324 46.806C15.1919 46.754 14.9454 47.7941 15.0362 48.1582C17.1639 46.845 18.7467 44.9598 22.8076 44.4267C23.067 44.4137 22.5221 45.4018 22.6908 45.7659C27.4003 41.8264 33.6797 47.0791 36.4302 43.9457C32.045 50.2775 24.3385 53.8139 16.3855 52.3837C8.25085 50.8885 2.17906 44.6347 0.414613 36.9638Z" fill="#01539F"/>
<path fill-rule="evenodd" clip-rule="evenodd" d="M36.521 43.7246C33.2645 52.1367 24.559 57.3373 15.5033 55.6991C5.86365 53.9569 -0.727092 45.0378 0.0643162 35.2865V35.2605C0.0643162 35.3125 0.0772901 35.3645 0.0772901 35.4165C0.116212 35.7026 0.168107 35.9886 0.232977 36.2616C0.284873 36.4697 0.336768 36.6777 0.401638 36.8857C2.16609 44.5697 8.23787 50.8105 16.3595 52.2797C24.3125 53.7229 32.032 50.1734 36.4042 43.8416C36.4561 43.8156 36.495 43.7636 36.521 43.7246Z" fill="#01539F"/>
<path fill-rule="evenodd" clip-rule="evenodd" d="M0.414613 36.8987C1.86769 41.5663 7.25186 46.325 11.9614 46.962C12.9993 47.1051 13.9983 47.0401 14.9324 46.741C15.1919 46.689 14.9454 47.7291 15.0362 48.0932C17.1639 46.78 18.7467 44.8948 22.8076 44.3617C23.067 44.3487 22.5221 45.3368 22.6908 45.7009C27.4003 41.7614 33.6797 47.014 36.4302 43.8806C32.045 50.2125 24.3385 53.7489 16.3855 52.3187C8.25085 50.8235 2.17906 44.5697 0.414613 36.8987Z" fill="#01539F"/>
<path d="M37.8313 35.1305C35.5479 21.0107 18.8894 0 18.8894 0C18.8894 0 4.15109 18.5924 0.492454 32.5562C0.453532 32.6862 0.427584 32.8162 0.388662 32.9462V32.9592C0.349741 33.1413 0.297845 33.3233 0.258923 33.5053C1.23197 32.7382 1.99743 32.1141 2.12717 31.9191C2.71099 31.022 10.2359 23.8061 10.2359 23.8061C10.2877 24.5082 10.3137 24.5732 10.3396 24.7552L7.5762 28.5387L10.4824 25.4313L11.2478 27.0565L10.8716 28.3957L11.5592 27.7976C11.5592 27.7976 11.9354 29.5658 11.9873 29.8258C12.0263 30.0209 11.3905 31.152 11.3516 31.399C11.3127 31.6461 9.45742 34.2204 9.3666 34.3504C12.0003 31.048 11.4295 31.8411 12.2598 30.4369L13.9075 31.7111C13.9075 31.9451 14.1669 32.6342 14.3616 33.1673C14.4524 33.4143 14.6081 33.6483 14.5562 33.7393C9.75582 42.2294 14.7767 33.9864 15.0492 34.2074C15.5422 34.6105 16.2298 35.1045 16.2298 35.1045L17.0601 36.5737L19.3306 38.953L18.0461 36.1707L20.1349 35.4426L26.7516 38.641L20.109 31.5811L17.4364 30.2809L14.3226 25.1712C14.8546 24.5862 15.7887 23.9751 15.9833 23.8191L17.3974 21.9598C17.4883 21.9078 21.0301 16.7462 21.4453 16.3041C21.4323 16.5251 21.3285 18.0723 21.2507 18.2934C21.4194 18.8394 21.6269 19.6845 21.6269 19.9316C21.6269 20.0616 17.7477 25.7953 17.6829 25.8863C17.7477 25.8863 21.8475 20.8157 21.9513 20.9197C24.0271 23.052 23.5082 21.3228 21.8215 25.7563C21.7956 25.8213 23.599 23 23.6379 23.078C23.8066 23.52 24.3385 24.7292 24.7926 25.6003C24.9872 25.9773 22.6908 30.866 22.7297 30.905C22.7297 30.905 25.3115 26.2634 25.4932 26.2374C25.8824 26.1724 27.1798 26.4584 27.2317 26.5104C27.3095 26.6014 25.7267 26.7574 25.9083 27.0695C26.4013 27.9406 27.7766 29.2538 28.4901 29.9689C28.6458 30.1249 27.4652 34.2334 27.4911 34.2724C27.4911 34.2724 29.1259 31.152 29.2686 31.23C30.9163 32.1401 33.8354 33.1933 34.017 33.3753C34.2246 33.5963 32.1617 38.3939 32.2526 38.407C32.5899 38.433 34.9641 33.3233 35.3404 33.5703C36.1447 34.1294 37.1048 35.1305 38 36.0146C37.9222 35.7416 37.8703 35.4296 37.8313 35.1305ZM18.7727 34.2724L15.8146 29.8779C17.8126 32.2052 17.138 31.204 18.7727 34.2724ZM15.0492 29.8258C12.5712 26.2374 13.4145 27.5896 11.3386 23.8711C13.7258 27.0695 12.8825 25.7173 15.0492 29.8258ZM24.3644 22.5319L22.6519 19.3985L24.5331 22.0378L25.5451 22.4409L24.3644 22.5319ZM27.3744 25.6393L26.8035 23.598L30.6697 29.8518L27.3744 25.6393Z" fill="#01539F"/>
</svg>
