<svg width="114" height="56" viewBox="0 0 114 56" fill="none" xmlns="http://www.w3.org/2000/svg">
<path d="M59.9435 0.161346C65.0328 1.70538 68.7404 6.42967 68.7404 12.0297C68.7404 17.6297 65.0328 22.354 59.9435 23.898L75.3727 18.2058C78.1131 17.3762 79.9784 14.8643 79.9784 12.0066C79.9784 9.14902 78.1131 6.63708 75.3727 5.80745L59.9435 0.161346Z" fill="#B5B3B4"/>
<path d="M51.584 14.1729C52.7815 16.6618 55.7522 17.6988 58.2393 16.5235C60.7264 15.3252 61.7627 12.3523 60.5882 9.86342L63.7431 8.36548C65.7697 12.5828 63.9734 17.6527 59.7592 19.6807C55.545 21.7087 50.4787 19.9112 48.4521 15.6939L51.584 14.1729Z" fill="#B5B3B4"/>
<path d="M56.0514 0C49.3961 0 44.0074 5.3926 44.0074 12.0527C44.0074 18.7128 49.3961 24.1054 56.0514 24.1054C62.7067 24.1054 68.0954 18.7128 68.0954 12.0527C68.0954 5.3926 62.7067 0 56.0514 0ZM56.0514 21.2708C50.9621 21.2708 46.84 17.1457 46.84 12.0527C46.84 6.95969 50.9621 2.83457 56.0514 2.83457C61.1407 2.83457 65.2628 6.95969 65.2628 12.0527C65.2628 17.1457 61.1407 21.2708 56.0514 21.2708Z" fill="#D3D3D3"/>
<path d="M48.4985 18.0444C38.5731 20.0033 33.7371 9.8403 33.7371 9.8403C44.6296 23.5523 55.0846 7.12095 66.0002 6.89049C76.5012 6.68309 81.6366 16.6387 81.6366 16.6387C67.1286 0.691303 58.4468 16.0856 48.4985 18.0444Z" fill="#38AEE4"/>
<path d="M0 49.0175L6.79344 32.3557L13.5869 49.0175H11.0998L10.5932 47.7039H2.99372L2.46406 49.0175H0ZM3.82275 45.5607H9.76413L6.79344 37.9327L3.82275 45.5607Z" fill="#38AEE4"/>
<path d="M25.4697 32.3788C26.6211 32.3788 27.7035 32.6093 28.7167 33.0472C29.73 33.485 30.6051 34.0842 31.365 34.8217C32.125 35.5821 32.7007 36.4579 33.1382 37.4719C33.5758 38.4859 33.8061 39.569 33.8061 40.7213C33.8061 41.8966 33.5758 43.0027 33.1152 44.0167C32.6546 45.0307 32.0329 45.9295 31.2499 46.69H33.783V49.0406H25.4697H25.4467C24.2953 49.0406 23.2129 48.8102 22.1997 48.3723C21.1864 47.9344 20.3113 47.3353 19.5744 46.5978C18.8144 45.8373 18.2387 44.9616 17.8012 43.9706C17.3636 42.9566 17.1334 41.8735 17.1334 40.7213C17.1334 39.569 17.3636 38.4859 17.8012 37.4719C18.2387 36.4579 18.8375 35.5821 19.5744 34.8217C20.3343 34.0612 21.2094 33.485 22.1997 33.0472C23.259 32.6093 24.3183 32.3788 25.4697 32.3788ZM25.5388 46.713C26.3448 46.713 27.1278 46.5517 27.8417 46.2291C28.5555 45.9065 29.2004 45.4686 29.73 44.9385C30.2597 44.3855 30.6972 43.7632 30.9966 43.0488C31.296 42.3344 31.4572 41.5509 31.4572 40.7443C31.4572 39.9147 31.296 39.1311 30.9966 38.3937C30.6972 37.6562 30.2597 37.034 29.707 36.4809C29.1543 35.9278 28.5325 35.513 27.7956 35.1904C27.0587 34.8908 26.2987 34.7295 25.4467 34.7295C24.6177 34.7295 23.8577 34.8908 23.1208 35.1904C22.3839 35.49 21.7621 35.9278 21.2094 36.4809C20.6567 37.034 20.2422 37.6562 19.9198 38.3937C19.6205 39.1311 19.4593 39.8916 19.4593 40.7443C19.4593 41.5509 19.6205 42.3344 19.9198 43.0719C20.2192 43.8093 20.6567 44.4315 21.2094 44.9846C21.7621 45.5377 22.3839 45.9525 23.1208 46.2752C23.8577 46.5748 24.6177 46.7361 25.4467 46.7361H25.5388V46.713Z" fill="#38AEE4"/>
<path d="M46.2413 32.3788H48.6363V43.5097C48.6363 44.2933 48.4981 45.0077 48.1987 45.676C47.8994 46.3443 47.5079 46.9204 46.9782 47.4044C46.4716 47.8883 45.8728 48.2801 45.182 48.5797C44.4911 48.8793 43.7772 49.0176 42.9712 49.0176C42.1883 49.0176 41.4744 48.8793 40.8065 48.5797C40.1387 48.3032 39.54 47.9114 39.0333 47.4044C38.5267 46.9204 38.1352 46.3213 37.8359 45.676C37.5365 45.0077 37.3983 44.2933 37.3983 43.5097V32.3788H39.7933V43.5097C39.7933 43.9476 39.8854 44.3624 40.0466 44.7542C40.2078 45.146 40.4381 45.4916 40.7375 45.7682C41.0138 46.0678 41.3592 46.2982 41.7507 46.4595C42.1422 46.6209 42.5567 46.713 42.9943 46.713C43.4548 46.713 43.8694 46.6209 44.2608 46.4595C44.6523 46.2982 44.9978 46.0678 45.2971 45.7682C45.5965 45.4686 45.8268 45.1229 45.988 44.7542C46.1492 44.3624 46.2413 43.9476 46.2413 43.5097V32.3788Z" fill="#38AEE4"/>
<path d="M52.2059 49.0176L58.9993 32.3558L65.7928 49.0176H63.3287L62.8221 47.704H55.2226L54.693 49.0176H52.2059ZM56.0286 45.5608H61.97L58.9993 37.9328L56.0286 45.5608Z" fill="#38AEE4"/>
<path d="M78.5047 40.7443C78.6198 40.8134 78.7119 40.9056 78.804 40.9978C78.8961 41.0899 78.9883 41.1821 79.0573 41.2743C79.4028 41.7122 79.6791 42.1961 79.8864 42.7262C80.0936 43.2562 80.1857 43.8093 80.1857 44.3854C80.1857 44.5237 80.1857 44.6389 80.1627 44.7081C80.1167 45.5607 79.8633 46.3212 79.3797 47.0126C78.9652 47.6579 78.4125 48.1418 77.7447 48.5336C77.0769 48.9023 76.34 49.0867 75.5109 49.0867H74.0141C73.2081 49.0867 72.4481 48.9023 71.7803 48.5336C71.1125 48.1649 70.5598 47.6579 70.1453 47.0126C70.0301 46.8282 69.892 46.6208 69.7768 46.3673L71.8954 44.7311C71.9415 45.0307 72.0336 45.2842 72.1718 45.5377C72.31 45.7912 72.4942 45.9986 72.7015 46.206C72.9087 46.3904 73.162 46.5517 73.4384 46.6439C73.7147 46.7591 73.9911 46.8052 74.2904 46.8052H75.1885C75.8103 46.8052 76.34 46.5978 76.8005 46.206C77.2611 45.8142 77.5375 45.3072 77.6065 44.7081C77.6065 44.6389 77.6065 44.5928 77.6065 44.5237C77.6065 44.4546 77.6065 44.4085 77.6065 44.3393C77.6065 44.0167 77.5375 43.6941 77.4223 43.4175C77.3072 43.141 77.1229 42.8875 76.9157 42.657C76.7084 42.4266 76.4551 42.2653 76.1557 42.127C75.8564 41.9887 75.557 41.9196 75.2576 41.8965H73.968H73.8759C73.3232 41.8735 72.7936 41.7813 72.2869 41.5739C71.8033 41.3665 71.3428 41.0899 70.9513 40.7443C70.744 40.5829 70.5598 40.4216 70.3986 40.1912C70.0532 39.7533 69.7768 39.2694 69.5926 38.7393C69.3853 38.2093 69.2932 37.6562 69.2932 37.1031V36.7805C69.3623 35.9278 69.6386 35.1442 70.0992 34.4759C70.5137 33.8307 71.0664 33.3467 71.7342 32.9549C72.4021 32.5862 73.139 32.4019 73.968 32.4019H75.4419C76.2479 32.4019 77.0078 32.5862 77.6756 32.9549C78.3435 33.3237 78.8961 33.8307 79.3107 34.4759C79.3567 34.5451 79.4028 34.6372 79.4488 34.7294C79.4949 34.8216 79.5409 34.9138 79.587 34.9829L77.5144 36.5961C77.3763 36.043 77.0999 35.6052 76.6624 35.2364C76.2248 34.8677 75.7182 34.6833 75.1425 34.6833H74.2444C73.945 34.6833 73.6456 34.7294 73.3693 34.8447C73.0929 34.9599 72.8396 35.0982 72.6324 35.2825C72.4251 35.4669 72.2409 35.6973 72.1027 35.9508C71.9645 36.2043 71.8724 36.4809 71.8264 36.7805C71.8033 36.8496 71.8033 36.8957 71.8033 36.9648C71.8033 37.034 71.8033 37.0801 71.8033 37.1492C71.8033 37.4718 71.8724 37.7945 71.9876 38.071C72.1027 38.3475 72.2639 38.6241 72.4942 38.8315C72.7014 39.062 72.9548 39.2233 73.2541 39.3615C73.5305 39.4998 73.8529 39.569 74.1523 39.592H75.4419H75.534C76.0867 39.615 76.6163 39.7072 77.1229 39.9146C77.6756 40.122 78.1132 40.3986 78.5047 40.7443Z" fill="#38AEE4"/>
<path d="M92.0451 32.3098C93.1965 32.3098 94.2789 32.5402 95.2921 32.9781C96.3054 33.416 97.1805 34.0151 97.9404 34.7756C98.7004 35.5361 99.2761 36.4119 99.7136 37.4489C100.151 38.4629 100.358 39.5691 100.358 40.7444C100.358 41.8966 100.151 42.9798 99.7136 43.9938C99.2761 45.0078 98.7004 45.9065 97.9404 46.644C97.1805 47.4045 96.3054 48.0036 95.2921 48.4415C94.2789 48.8794 93.1965 49.1098 92.0451 49.1098C90.8937 49.1098 89.8113 48.8794 88.7981 48.4415C87.7848 48.0036 86.9097 47.4045 86.1728 46.644C85.4129 45.8835 84.8372 45.0078 84.3996 43.9938C83.9621 42.9798 83.7548 41.8966 83.7548 40.7444C83.7548 39.5691 83.9621 38.4859 84.3996 37.4489C84.8372 36.4349 85.4129 35.5361 86.1728 34.7756C86.9328 34.0151 87.8079 33.416 88.7981 32.9781C89.8113 32.5402 90.8937 32.3098 92.0451 32.3098ZM92.0451 46.7592C92.8281 46.7592 93.588 46.5979 94.2789 46.2752C94.9928 45.9526 95.5915 45.5378 96.1212 44.9847C96.6508 44.4316 97.0653 43.8094 97.3647 43.0719C97.6641 42.3345 97.8253 41.551 97.8253 40.7213C97.8253 39.8917 97.6641 39.1082 97.3647 38.3707C97.0653 37.6333 96.6508 36.988 96.1212 36.4349C95.5915 35.8818 94.9928 35.4439 94.2789 35.1444C93.565 34.8217 92.8281 34.6604 92.0451 34.6604C91.2621 34.6604 90.5252 34.8217 89.8113 35.1444C89.1205 35.467 88.4987 35.9049 87.9921 36.4349C87.4624 36.988 87.0479 37.6333 86.7485 38.3707C86.4492 39.1082 86.288 39.8917 86.288 40.7213C86.288 41.551 86.4492 42.3345 86.7485 43.0719C87.0479 43.8094 87.4624 44.4316 87.9921 44.9847C88.5217 45.5378 89.1205 45.9526 89.8113 46.2752C90.5022 46.5979 91.2621 46.7592 92.0451 46.7592Z" fill="#38AEE4"/>
<path d="M106.369 46.69H113.162V49.0867H103.951V32.4019H106.392V46.69H106.369Z" fill="#38AEE4"/>
<path d="M0.299012 55.931V55.6545C0.391126 55.7006 0.48324 55.7006 0.598383 55.7006C0.736555 55.7006 0.851698 55.6545 0.943812 55.5393C0.989869 55.4701 1.03593 55.4241 1.05896 55.378C1.08198 55.3319 1.12804 55.2627 1.1741 55.1706L0.0687256 53.2117H0.391126L1.31227 54.894L2.07221 53.2117H2.37159L1.38136 55.3549C1.1741 55.8158 0.943812 55.9771 0.667469 55.9771C0.506269 55.9771 0.391126 55.9771 0.299012 55.931Z" fill="#B5B3B4"/>
<path d="M2.99344 55.9313V53.1889H3.29281V54.3182H4.92784V53.1889H5.22721V55.9313H4.92784V54.5947H3.29281V55.9313H2.99344Z" fill="#B5B3B4"/>
<path d="M6.07947 55.9313V53.1889H6.35581V55.4474L8.05993 53.1889H8.31324V55.9313H8.0369V53.6729L6.33278 55.9313H6.07947Z" fill="#B5B3B4"/>
<path d="M9.18829 55.9313V53.1889H10.3858C10.8694 53.1889 11.1688 53.4424 11.1688 53.8572C11.1688 54.1338 11.0306 54.3642 10.8003 54.4334C11.1688 54.5025 11.399 54.756 11.399 55.1708C11.399 55.6317 11.0536 55.9313 10.5009 55.9313H9.18829ZM9.48767 54.3642H10.3397C10.6852 54.3642 10.8924 54.2029 10.8924 53.9264C10.8924 53.6268 10.6852 53.4655 10.3397 53.4655H9.48767V54.3642ZM9.48767 55.6778H10.4549C10.8694 55.6778 11.0997 55.4704 11.0997 55.1478C11.0997 54.8251 10.8694 54.6177 10.4549 54.6177H9.48767V55.6778Z" fill="#B5B3B4"/>
<path d="M12.159 55.9313V53.1889H14.0473V53.4424H12.4353V54.3182H13.748V54.5717H12.4353V55.6548H14.0934V55.9083H12.159V55.9313Z" fill="#B5B3B4"/>
<path d="M14.761 55.9313V53.1889H15.9124C16.4651 53.1889 16.7875 53.4885 16.7875 53.9494C16.7875 54.4103 16.4651 54.7099 15.9124 54.7099H15.0604V55.9313H14.761ZM15.0604 54.4564H15.8894C16.2809 54.4564 16.5112 54.2721 16.5112 53.9494C16.5112 53.6268 16.2809 53.4424 15.8894 53.4424H15.0373V54.4564H15.0604Z" fill="#B5B3B4"/>
<path d="M17.7545 55.5852C17.4781 55.3087 17.363 54.986 17.363 54.5712C17.363 54.1564 17.5011 53.8338 17.7545 53.5572C18.0308 53.2807 18.3532 53.1424 18.7677 53.1424C19.0671 53.1424 19.3204 53.2115 19.5277 53.3498V53.6494C19.2974 53.4881 19.0441 53.4189 18.7677 53.4189C18.4453 53.4189 18.192 53.5342 17.9617 53.7416C17.7545 53.949 17.6393 54.2255 17.6393 54.5712C17.6393 54.8938 17.7545 55.1704 17.9617 55.4008C18.169 55.6082 18.4453 55.7235 18.7677 55.7235C19.0901 55.7235 19.3434 55.6313 19.5737 55.4469V55.7465C19.3434 55.9078 19.0671 56 18.7447 56C18.3762 55.977 18.0308 55.8617 17.7545 55.5852Z" fill="#B5B3B4"/>
<path d="M20.0115 55.9311L21.232 53.1656H21.5083L22.7288 55.9311H22.4295L22.084 55.1706H20.6563L20.3339 55.9311H20.0115ZM20.7484 54.9171H21.9919L21.3702 53.5344L20.7484 54.9171Z" fill="#B5B3B4"/>
<path d="M23.0055 55.6776C23.0285 55.6776 23.0745 55.6776 23.1206 55.6776C23.3739 55.6776 23.4891 55.4932 23.5812 55.1936C23.6042 55.1014 23.6272 54.9862 23.6503 54.8479C23.6733 54.7096 23.6733 54.5714 23.6963 54.4331C23.6963 54.2948 23.7193 54.1335 23.7193 53.9492L23.7424 53.2117H25.4465V55.9541H25.1471V53.4652H23.9957L23.9727 54.0874C23.9496 54.5944 23.9266 54.9171 23.8575 55.2397C23.7424 55.7006 23.5351 55.931 23.1206 55.931C23.0745 55.931 23.0285 55.931 23.0055 55.931V55.6776Z" fill="#B5B3B4"/>
<path d="M26.2984 55.9313V53.1889H26.5978V54.2029H27.4268C27.7262 54.2029 27.9795 54.2721 28.1407 54.4334C28.3249 54.5947 28.394 54.8021 28.394 55.0556C28.394 55.5626 28.0255 55.9083 27.4038 55.9083H26.2984V55.9313ZM26.5978 55.6778H27.4038C27.8643 55.6778 28.1177 55.4704 28.1177 55.0786C28.1177 54.6869 27.8643 54.4795 27.4038 54.4795H26.5978V55.6778Z" fill="#B5B3B4"/>
<path d="M29.085 55.9313V53.1889H29.3844V54.3182H31.0194V53.1889H31.3188V55.9313H31.0194V54.5947H29.3844V55.9313H29.085Z" fill="#B5B3B4"/>
<path d="M32.1705 55.9313V53.1889H32.4699V54.2029H33.1838C33.4832 54.2029 33.7365 54.2721 33.8977 54.4334C34.0819 54.5947 34.151 54.8021 34.151 55.0556C34.151 55.5626 33.7825 55.9083 33.1608 55.9083H32.1705V55.9313ZM32.4699 55.6778H33.1608C33.6213 55.6778 33.8747 55.4704 33.8747 55.0786C33.8747 54.6869 33.6213 54.4795 33.1608 54.4795H32.4699V55.6778ZM34.5885 55.9313V53.1889H34.8879V55.9313H34.5885Z" fill="#B5B3B4"/>
<path d="M35.7629 55.9311V53.1887H36.0393V55.4471L37.7434 53.1887H37.9967V55.9311H37.7203V53.6726L36.0162 55.9311H35.7629ZM36.2235 52.4052H36.4768C36.4768 52.6126 36.638 52.7739 36.8913 52.7739C37.1216 52.7739 37.2828 52.6126 37.2828 52.4052H37.5361C37.5361 52.5895 37.467 52.7278 37.3519 52.843C37.2367 52.9582 37.0755 53.0043 36.8913 53.0043C36.4768 53.0043 36.2235 52.7739 36.2235 52.4052Z" fill="#B5B3B4"/>
<path d="M40.0235 55.9313V53.1889H40.2998V55.4474L42.004 53.1889H42.2573V55.9313H41.9809V53.6729L40.2768 55.9313H40.0235Z" fill="#B5B3B4"/>
<path d="M43.1551 55.9313V53.1889H43.4544V54.3182H45.0895V53.1889H45.3888V55.9313H45.0895V54.5947H43.4544V55.9313H43.1551Z" fill="#B5B3B4"/>
<path d="M46.2411 55.9313V53.1889H48.0834V53.4424H46.5175V55.9313H46.2411Z" fill="#B5B3B4"/>
<path d="M48.7055 55.9313V53.1889H48.9818V55.4474L50.686 53.1889H50.9393V55.9313H50.6629V53.6729L48.9588 55.9313H48.7055Z" fill="#B5B3B4"/>
<path d="M51.8371 55.9313V53.1889H53.7024V53.4424H52.1134V54.226H52.9424C53.2418 54.226 53.4951 54.2951 53.6563 54.4564C53.8175 54.6177 53.9096 54.8251 53.9096 55.0786C53.9096 55.5856 53.5412 55.9313 52.9424 55.9313H51.8371ZM52.1134 55.6778H52.9194C53.38 55.6778 53.6333 55.4704 53.6333 55.0786C53.6333 54.7099 53.38 54.5025 52.9194 54.5025H52.1134V55.6778Z" fill="#B5B3B4"/>
<path d="M54.6692 55.9313V53.1889H54.9456V55.4474L56.6497 53.1889H56.903V55.9313H56.6266V53.6729L54.9225 55.9313H54.6692Z" fill="#B5B3B4"/>
<path d="M58.492 55.931V53.4652H57.5479V53.2117H59.7356V53.4652H58.7914V55.9541H58.492V55.931Z" fill="#B5B3B4"/>
<path d="M61.4172 53.1424C61.8087 53.1424 62.1311 53.2807 62.4075 53.5572C62.6608 53.8338 62.799 54.1564 62.799 54.5712C62.799 54.986 62.6608 55.3087 62.4075 55.5852C62.1541 55.8617 61.8318 56 61.4172 56C61.0027 56 60.7033 55.8617 60.427 55.5852C60.1507 55.3087 60.0355 54.963 60.0355 54.5712C60.0355 54.1794 60.1737 53.8338 60.427 53.5572C60.6803 53.2807 61.0258 53.1424 61.4172 53.1424ZM61.4172 55.7235C61.7166 55.7235 61.9699 55.6082 62.1772 55.4008C62.3844 55.1704 62.4996 54.9169 62.4996 54.5712C62.4996 54.2255 62.3844 53.972 62.1772 53.7416C61.9699 53.5111 61.7166 53.4189 61.4172 53.4189C61.1179 53.4189 60.8645 53.5342 60.6573 53.7416C60.45 53.972 60.3349 54.2255 60.3349 54.5712C60.3349 54.9169 60.45 55.1704 60.6573 55.4008C60.8415 55.6082 61.1179 55.7235 61.4172 55.7235Z" fill="#B5B3B4"/>
<path d="M63.5586 55.9313V53.1889H64.71C65.2627 53.1889 65.5851 53.4885 65.5851 53.9494C65.5851 54.4103 65.2627 54.7099 64.71 54.7099H63.858V55.9313H63.5586ZM63.858 54.4564H64.71C65.1015 54.4564 65.3318 54.2721 65.3318 53.9494C65.3318 53.6268 65.1015 53.4424 64.71 53.4424H63.858V54.4564Z" fill="#B5B3B4"/>
<path d="M67.4277 55.9313V53.1889H67.727V54.3182H69.3621V53.1889H69.6615V55.9313H69.3621V54.5947H67.704V55.9313H67.4277Z" fill="#B5B3B4"/>
<path d="M70.237 55.9311L71.4575 53.1656H71.7339L72.9544 55.9311H72.655L72.3096 55.1706H70.8818L70.5594 55.9311H70.237ZM70.9739 54.9171H72.2175L71.5957 53.5344L70.9739 54.9171Z" fill="#B5B3B4"/>
<path d="M73.8526 53.1889V54.3873L75.1192 53.1889H75.5107L74.175 54.4334L75.7179 55.9313H75.3034L73.8526 54.5256V55.9313H73.5532V53.1889H73.8526Z" fill="#B5B3B4"/>
<path d="M76.27 55.9313V53.1889H76.5464V55.4474L78.2505 53.1889H78.5038V55.9313H78.2274V53.6729L76.5233 55.9313H76.27Z" fill="#B5B3B4"/>
<path d="M79.4021 55.9313V53.1889H81.5438V55.9313H81.2444V53.4655H79.6784V55.9544H79.4021V55.9313Z" fill="#B5B3B4"/>
<path d="M82.4189 55.9313V53.1889H82.6952V55.4474L84.3993 53.1889H84.6526V55.9313H84.3763V53.6729L82.6722 55.9313H82.4189Z" fill="#B5B3B4"/>
<path d="M86.6794 55.9313V53.1889H86.9558V55.4474L88.6599 53.1889H88.9132V55.9313H88.6369V53.6729L86.9328 55.9313H86.6794Z" fill="#B5B3B4"/>
<path d="M91.2391 53.1889V54.3873L92.5057 53.1889H92.8972L91.5615 54.4334L93.1044 55.9313H92.6899L91.2391 54.5256V55.9313H90.9628V53.1889H91.2391Z" fill="#B5B3B4"/>
<path d="M94.7163 53.1424C95.1078 53.1424 95.4302 53.2807 95.7065 53.5572C95.9599 53.8338 96.098 54.1564 96.098 54.5712C96.098 54.986 95.9599 55.3087 95.7065 55.5852C95.4532 55.8617 95.1308 56 94.7163 56C94.3018 56 94.0024 55.8617 93.7261 55.5852C93.4497 55.3087 93.3346 54.963 93.3346 54.5712C93.3346 54.1794 93.4728 53.8338 93.7261 53.5572C93.9794 53.2807 94.3018 53.1424 94.7163 53.1424ZM94.7163 55.7235C95.0157 55.7235 95.269 55.6082 95.4763 55.4008C95.6835 55.1704 95.7987 54.9169 95.7987 54.5712C95.7987 54.2255 95.6835 53.972 95.4763 53.7416C95.269 53.5111 95.0157 53.4189 94.7163 53.4189C94.4169 53.4189 94.1636 53.5342 93.9564 53.7416C93.7491 53.972 93.634 54.2255 93.634 54.5712C93.634 54.9169 93.7491 55.1704 93.9564 55.4008C94.1406 55.6082 94.3939 55.7235 94.7163 55.7235Z" fill="#B5B3B4"/>
<path d="M96.8582 55.9313V53.1889H98.0096C98.5623 53.1889 98.8847 53.4885 98.8847 53.9494C98.8847 54.4103 98.5623 54.7099 98.0096 54.7099H97.1576V55.9313H96.8582ZM97.1576 54.4564H98.0096C98.4011 54.4564 98.6314 54.2721 98.6314 53.9494C98.6314 53.6268 98.4011 53.4424 98.0096 53.4424H97.1576V54.4564Z" fill="#B5B3B4"/>
<path d="M99.5755 55.9313V53.1889H100.727C101.28 53.1889 101.602 53.4885 101.602 53.9494C101.602 54.4103 101.28 54.7099 100.727 54.7099H99.8749V55.9313H99.5755ZM99.8518 54.4564H100.704C101.095 54.4564 101.326 54.2721 101.326 53.9494C101.326 53.6268 101.095 53.4424 100.704 53.4424H99.8518V54.4564Z" fill="#B5B3B4"/>
<path d="M103.559 53.1424C103.951 53.1424 104.273 53.2807 104.549 53.5572C104.803 53.8338 104.941 54.1564 104.941 54.5712C104.941 54.986 104.803 55.3087 104.549 55.5852C104.296 55.8617 103.974 56 103.559 56C103.145 56 102.845 55.8617 102.569 55.5852C102.293 55.3087 102.177 54.963 102.177 54.5712C102.177 54.1794 102.316 53.8338 102.569 53.5572C102.822 53.2807 103.145 53.1424 103.559 53.1424ZM103.559 55.7235C103.859 55.7235 104.112 55.6082 104.319 55.4008C104.526 55.1704 104.642 54.9169 104.642 54.5712C104.642 54.2255 104.526 53.972 104.319 53.7416C104.112 53.5111 103.859 53.4189 103.559 53.4189C103.26 53.4189 103.006 53.5342 102.799 53.7416C102.592 53.972 102.477 54.2255 102.477 54.5712C102.477 54.9169 102.592 55.1704 102.799 55.4008C102.983 55.6082 103.237 55.7235 103.559 55.7235Z" fill="#B5B3B4"/>
<path d="M105.378 55.7698V55.4703C105.655 55.6316 105.931 55.7007 106.253 55.7007C106.783 55.7007 107.106 55.4703 107.106 55.1246C107.106 54.8019 106.806 54.5715 106.346 54.5715H106V54.318H106.369C106.76 54.318 106.99 54.1567 106.99 53.8571C106.99 53.5805 106.714 53.3962 106.323 53.3962C106.046 53.3962 105.793 53.4653 105.517 53.5805V53.304C105.793 53.1888 106.069 53.1196 106.346 53.1196C106.622 53.1196 106.852 53.1888 107.013 53.304C107.198 53.4423 107.29 53.6036 107.29 53.811C107.29 53.9723 107.244 54.1106 107.152 54.2028C107.059 54.2949 106.967 54.3641 106.852 54.4102C107.013 54.4563 107.129 54.5484 107.244 54.6637C107.359 54.7789 107.428 54.9402 107.428 55.1246C107.428 55.3781 107.336 55.5624 107.129 55.7238C106.921 55.8851 106.668 55.9542 106.323 55.9542C105.954 55.9773 105.632 55.9081 105.378 55.7698Z" fill="#B5B3B4"/>
<path d="M108.165 55.9313V53.1889H108.441V55.4474L110.145 53.1889H110.399V55.9313H110.122V53.6729L108.418 55.9313H108.165Z" fill="#B5B3B4"/>
<path d="M111.297 55.9313V53.1889H111.573V55.4474L113.277 53.1889H113.531V55.9313H113.254V53.6729L111.55 55.9313H111.297Z" fill="#B5B3B4"/>
</svg>
