<svg width="128" height="24" viewBox="0 0 128 24" fill="none" xmlns="http://www.w3.org/2000/svg">
<path d="M96.5811 0.803071H109.044L108.715 1.89192C108.715 1.89192 108.232 1.89293 106.94 1.89293C105.55 1.89293 105.011 3.09843 104.88 3.57848C104.88 3.57848 102.308 12.0139 101.883 13.4111C101.458 14.8085 101.051 16.5825 100.833 17.8044C100.656 18.9367 100.675 22.4019 107.28 22.4019C113.224 22.4019 116.282 18.5249 117.584 14.432C118.796 10.632 120.133 4.96416 120.579 3.54217C120.935 2.40659 119.996 1.89259 119.485 1.89259C118.824 1.89259 117.068 1.89259 117.068 1.89259L117.376 0.802734H128L127.658 1.89495C127.658 1.89495 126.586 1.89057 125.911 1.89057C124.888 1.89057 124.084 2.62006 123.883 3.28231C123.381 4.94937 121.075 10.8471 119.718 15.0045C118.156 19.7905 113.477 23.8454 105.993 23.8454C103.763 23.8454 100.633 23.3563 98.6914 22.3787C96.8064 21.3729 95.7888 19.3243 95.8782 17.1899C95.8782 17.1899 95.9892 16.0022 96.3256 14.8841C96.6612 13.7657 99.6449 4.0444 99.8217 3.39762C99.9703 2.85134 99.5901 1.89024 98.6632 1.89024L96.2448 1.89293L96.5811 0.803071Z" fill="#219653"/>
<path d="M0.33034 22.1065C0.33034 22.1065 1.22731 22.1065 1.95878 22.1065C2.87668 22.1065 3.97305 21.8164 4.41306 20.58C4.81419 19.4538 11.0747 3.58569 11.0747 3.58569C8.33294 2.21143 5.07008 2.02318 1.91158 1.89308L2.35159 0.803223C2.35159 0.803223 6.45259 0.803223 8.3778 0.803223C11.9308 0.803223 14.4409 1.30579 16.0298 2.07932C18.7061 3.38264 20.9148 5.31124 22.5026 7.04452C26.8413 11.7801 29.2085 17.2519 29.5601 18.3519L33.4793 3.62905C33.7033 2.85553 33.3922 1.89342 32.3829 1.89342C31.3886 1.89342 30.2281 1.89342 29.9606 1.89342L30.2929 0.803559H40.788L40.446 1.89342C40.446 1.89342 39.1998 1.89342 38.8864 1.89342C37.4849 1.89342 36.8884 2.73955 36.6371 3.54871C36.345 4.49368 29.9802 23.1977 29.9802 23.1977H25.162C25.162 23.1977 24.043 18.3324 19.831 11.8995C16.4655 6.75844 12.7214 4.45804 12.7214 4.45804C12.7214 4.45804 8.10628 19.6317 7.85271 20.5037C7.59815 21.3757 8.17973 22.1065 8.9667 22.1065C9.91451 22.1065 11.411 22.1065 11.411 22.1065L11.0813 23.1971H0L0.33034 22.1065Z" fill="#219653"/>
<path d="M55.2913 0.0050023C47.6191 0.149891 39.1459 3.52401 37.024 11.8949C34.9067 20.243 41.099 24.1604 49.8952 23.995C57.5675 23.8504 66.04 20.4763 68.1626 12.1054C70.2803 3.75731 64.0872 -0.160056 55.2913 0.0050023ZM62.4741 12.6241C60.1354 20.1021 54.3462 22.6668 49.646 22.536C45.1834 22.4126 40.1356 19.6174 42.7118 11.3759C45.0505 3.89817 50.8397 1.33455 55.5393 1.46431C60.0012 1.58768 65.0503 4.38326 62.4741 12.6241Z" fill="#219653"/>
<path d="M68.9871 20.5413C68.7419 21.3431 68.0848 22.1065 66.9306 22.1065C66.4132 22.1065 64.8964 22.1052 64.8964 22.1052L64.5641 23.1971H80.1592C86.6736 23.1971 91.424 21.6628 92.5463 17.7185C93.5635 14.1407 90.521 12.2111 86.8511 11.7263C92.0335 11.1048 94.3319 9.03867 94.9238 6.77895C95.7197 3.74268 93.0919 0.803223 86.6141 0.803223L70.9549 0.804567L70.6239 1.89308C70.6239 1.89308 72.3204 1.89308 73.0266 1.89308C73.7328 1.89308 74.4617 2.54188 74.1755 3.48349C73.8202 4.65571 69.252 19.671 68.9871 20.5413ZM79.6879 2.11899C80.1871 2.11899 82.0512 2.11899 83.641 2.11899C88.3678 2.11899 90.3312 4.00018 89.6593 6.62566C88.7896 10.028 85.3602 10.9716 81.8325 10.9716C80.0249 10.9716 77.0253 10.9639 77.0253 10.9639L79.6879 2.11899ZM78.684 21.8816C77.4995 21.8816 76.2875 21.8816 75.2672 21.8816C74.3344 21.8816 73.9801 20.9525 74.1429 20.3924C74.2736 19.9446 76.6414 12.2649 76.6414 12.2649C76.6414 12.2649 80.3446 12.2716 81.5998 12.2716C86.6679 12.2716 88.196 14.7081 87.5852 17.1598C87.1305 18.9788 85.198 21.8816 78.684 21.8816Z" fill="#219653"/>
</svg>
